<?xml version="1.0" standalone="no"?>
<!DOCTYPE svg PUBLIC "-//W3C//DTD SVG 20010904//EN"
 "http://www.w3.org/TR/2001/REC-SVG-20010904/DTD/svg10.dtd">
<svg version="1.0" xmlns="http://www.w3.org/2000/svg"
 width="2000.000000pt" height="2000.000000pt" viewBox="0 0 2000.000000 2000.000000"
 preserveAspectRatio="xMidYMid meet">
<metadata>
Created by potrace 1.14, written by Peter Selinger 2001-2017
</metadata>
<g transform="translate(0.000000,2000.000000) scale(0.100000,-0.100000)"
fill="#000000" stroke="none">
<path d="M9094 18736 c-10 -25 -55 -49 -67 -37 -6 6 -23 11 -38 11 -15 0 -31
5 -34 10 -8 13 -75 13 -95 0 -13 -9 -13 -11 0 -19 11 -8 9 -12 -14 -21 -34
-12 -38 -9 -38 25 0 21 -4 25 -22 19 -11 -4 -23 -9 -26 -13 -3 -3 -14 -7 -25
-8 -49 -6 -163 -14 -188 -13 -16 0 -26 -3 -23 -8 3 -5 -18 -9 -45 -10 -69 -1
-111 -21 -103 -47 6 -19 5 -18 -15 3 -27 28 -33 28 -68 -1 -43 -36 -92 -57
-133 -57 -21 0 -54 -7 -73 -15 -20 -8 -43 -12 -53 -8 -13 5 -15 2 -10 -14 9
-29 -17 -37 -73 -22 -42 10 -50 9 -86 -11 -22 -13 -75 -40 -118 -62 -43 -21
-76 -42 -73 -47 3 -4 -1 -8 -8 -8 -7 0 -34 -10 -60 -22 -36 -18 -48 -30 -53
-52 -4 -21 -11 -28 -27 -28 -21 1 -94 -16 -102 -23 -2 -2 -6 -21 -9 -41 -5
-30 -3 -36 8 -31 8 3 18 1 22 -5 9 -15 -4 -33 -18 -24 -7 4 -19 8 -27 10 -8 1
-16 7 -18 12 -6 19 -20 12 -26 -15 -6 -22 -11 -25 -31 -20 -14 3 -37 9 -51 12
-23 6 -25 4 -23 -17 4 -28 0 -33 -23 -24 -27 11 -52 2 -63 -22 -6 -15 -16 -21
-26 -18 -10 3 -30 -7 -49 -25 -18 -16 -38 -30 -46 -30 -8 0 -19 -9 -26 -20 -7
-11 -20 -20 -29 -20 -9 0 -27 -8 -40 -19 -13 -10 -35 -22 -49 -26 -39 -12
-101 -45 -123 -66 -12 -10 -26 -19 -33 -19 -6 0 -14 -7 -18 -15 -3 -8 -13 -15
-23 -15 -11 -1 -26 -17 -38 -43 -17 -36 -24 -42 -48 -39 -22 2 -30 -2 -34 -17
-4 -15 -14 -21 -32 -21 -17 0 -36 -10 -49 -25 -16 -19 -18 -25 -7 -25 9 0 12
-6 8 -16 -4 -12 -14 -14 -40 -9 -24 4 -35 2 -39 -9 -5 -12 -48 -31 -65 -28 -3
0 -20 -12 -38 -29 -18 -16 -36 -29 -41 -29 -5 0 -14 -9 -20 -20 -6 -11 -17
-20 -24 -20 -7 0 -21 -9 -31 -20 -10 -11 -26 -20 -36 -20 -10 0 -31 -11 -46
-25 -16 -13 -43 -36 -60 -50 -18 -15 -33 -33 -33 -41 0 -8 -5 -14 -11 -14 -15
0 -109 -81 -109 -94 -1 -11 -83 -76 -97 -76 -15 -1 -53 -38 -53 -53 0 -8 7
-17 15 -21 8 -3 15 -11 15 -17 0 -8 -4 -8 -15 1 -13 11 -22 8 -55 -19 -21 -17
-46 -31 -54 -31 -19 0 -46 -38 -46 -65 -1 -28 -23 -55 -46 -55 -11 0 -27 -9
-37 -20 -9 -11 -15 -20 -13 -20 2 0 -14 -18 -36 -40 -22 -21 -37 -44 -33 -50
9 -15 -12 -39 -50 -54 -34 -14 -70 -58 -76 -91 -3 -11 -12 -20 -22 -20 -24 0
-57 -53 -57 -93 0 -24 -9 -42 -31 -64 -34 -34 -49 -66 -49 -104 0 -14 -13 -39
-30 -57 -17 -18 -33 -43 -36 -57 -3 -14 -11 -39 -19 -56 -8 -19 -10 -36 -4
-46 9 -16 -12 -48 -31 -48 -6 0 -20 -33 -24 -60 -1 -3 -14 -34 -29 -70 -16
-36 -34 -78 -41 -95 -7 -16 -30 -64 -50 -106 -20 -42 -36 -85 -36 -95 0 -10
-11 -43 -25 -72 -14 -30 -25 -62 -25 -71 0 -9 -4 -21 -9 -26 -14 -15 -61 -144
-61 -169 0 -12 6 -28 13 -35 10 -10 8 -15 -6 -26 -14 -10 -17 -21 -12 -43 3
-18 2 -33 -4 -37 -6 -3 -11 -16 -11 -27 0 -12 -10 -32 -21 -45 -17 -17 -22
-37 -24 -88 -1 -35 -7 -71 -14 -78 -6 -8 -8 -16 -5 -19 3 -3 -1 -22 -10 -41
-8 -20 -18 -62 -22 -94 -4 -32 -12 -74 -19 -93 -7 -21 -9 -44 -4 -57 9 -25 -7
-91 -28 -115 -9 -10 -13 -26 -10 -37 3 -11 -1 -25 -9 -32 -19 -16 -19 -50 1
-43 10 4 15 0 15 -14 0 -11 -4 -22 -10 -24 -16 -5 -41 -120 -39 -178 1 -30 -4
-74 -10 -97 -9 -32 -9 -48 -1 -63 8 -15 8 -30 0 -54 -10 -33 -8 -50 12 -93 9
-17 6 -27 -11 -49 -25 -32 -26 -47 -6 -64 16 -13 21 -50 6 -50 -22 0 -39 -213
-19 -238 8 -9 6 -25 -6 -57 -11 -28 -15 -53 -10 -67 4 -13 7 -27 6 -32 -6 -20
30 -254 44 -287 9 -19 17 -60 18 -90 3 -61 34 -138 68 -171 13 -13 46 -51 73
-86 26 -34 59 -65 72 -68 12 -4 23 -10 23 -14 0 -4 14 -13 30 -19 17 -5 38
-17 46 -26 10 -9 24 -13 35 -10 13 4 26 -1 37 -14 9 -11 32 -23 51 -26 18 -3
48 -12 67 -20 18 -7 55 -17 81 -20 66 -9 108 -22 178 -57 35 -17 76 -30 97
-30 20 1 42 -6 49 -14 6 -8 18 -14 25 -14 8 0 14 -6 14 -14 0 -9 -7 -12 -20
-9 -16 4 -20 0 -20 -20 0 -14 7 -27 15 -31 8 -3 15 -17 15 -30 0 -14 10 -32
23 -41 l22 -16 -21 -17 c-38 -32 -49 -96 -26 -152 22 -56 27 -97 14 -133 -7
-21 -13 -60 -15 -85 -1 -29 -8 -53 -19 -64 -10 -10 -15 -24 -12 -32 3 -8 -4
-20 -15 -28 -11 -8 -37 -37 -58 -64 -20 -27 -39 -51 -43 -54 -16 -14 -41 -63
-37 -74 4 -10 -3 -27 -44 -103 -7 -13 -18 -23 -25 -23 -7 0 -16 -5 -20 -12 -5
-8 -2 -9 9 -5 10 3 17 2 17 -3 0 -6 10 -20 22 -32 15 -15 21 -32 19 -54 -2
-22 3 -36 17 -46 16 -10 19 -22 16 -55 -4 -46 16 -77 66 -103 14 -7 31 -21 38
-31 11 -15 16 -17 32 -7 15 10 25 9 46 -2 21 -12 28 -12 31 -2 3 6 15 12 28
12 13 0 26 -6 28 -12 4 -10 8 -10 14 -2 4 6 18 14 31 18 12 4 20 11 17 16 -7
11 16 50 28 50 5 0 5 -10 1 -22 -3 -13 -3 -20 1 -16 4 4 19 -4 33 -18 28 -25
52 -32 52 -14 0 6 9 10 20 10 16 0 20 -7 22 -32 2 -57 -3 -83 -18 -95 -13 -10
-13 -15 1 -50 19 -43 28 -208 14 -235 -6 -10 -5 -28 2 -45 7 -15 11 -62 10
-104 -2 -93 13 -126 94 -202 37 -35 57 -62 61 -84 3 -18 12 -37 20 -44 8 -6
14 -16 14 -22 0 -6 10 -21 21 -33 14 -15 23 -40 26 -71 2 -26 11 -55 18 -64 8
-8 15 -34 15 -57 0 -31 4 -42 16 -42 8 0 33 -14 54 -31 26 -21 44 -29 58 -25
14 5 21 1 25 -14 3 -12 13 -20 27 -20 13 0 24 -8 27 -19 3 -13 10 -18 20 -14
13 5 15 0 11 -25 -2 -17 -2 -30 1 -30 14 3 41 -15 41 -28 0 -7 6 -17 13 -21
16 -10 31 -41 31 -68 1 -10 12 -25 26 -32 35 -17 50 -42 50 -79 0 -21 6 -37
18 -43 13 -7 14 -13 5 -22 -7 -7 -8 -18 -3 -28 25 -50 33 -76 53 -167 5 -22
58 -92 74 -98 9 -4 31 -4 49 0 37 7 34 13 38 -76 1 -16 10 -29 28 -38 15 -7
29 -20 32 -30 7 -20 59 -52 85 -52 9 0 22 -5 28 -11 6 -6 49 -13 96 -15 47 -2
96 -8 109 -13 15 -5 30 -6 39 0 19 12 66 11 89 -1 14 -8 27 -5 52 10 21 13 34
16 39 9 9 -15 49 -1 49 16 0 8 -5 17 -10 20 -6 4 -8 11 -4 16 3 6 22 -6 42
-26 69 -66 71 -68 89 -60 10 4 39 8 65 9 56 2 63 7 48 35 -11 22 -6 41 10 41
5 0 12 -11 16 -25 7 -27 28 -33 41 -12 9 15 63 32 63 20 0 -5 -10 -13 -22 -18
-37 -16 -22 -30 33 -31 27 -1 53 -4 56 -8 3 -3 15 0 26 5 14 8 22 8 27 -1 4
-6 29 -13 56 -14 27 -2 57 -7 67 -11 11 -5 24 -1 36 9 27 25 66 20 89 -11 19
-26 22 -27 56 -15 29 11 39 11 58 -2 29 -18 73 -27 130 -27 45 -1 158 -36 158
-50 0 -4 8 -7 18 -6 9 0 36 -8 60 -18 31 -14 44 -26 48 -45 20 -108 31 -135
51 -133 28 3 51 -23 35 -39 -15 -15 -16 -65 -2 -73 6 -3 10 -15 10 -26 0 -11
11 -30 24 -42 17 -16 22 -27 15 -38 -6 -11 -2 -30 11 -57 11 -23 20 -46 20
-51 0 -16 -61 -82 -74 -79 -11 3 -163 -53 -198 -72 -10 -5 -24 -7 -33 -4 -8 4
-32 -1 -53 -11 -20 -9 -48 -21 -62 -27 -65 -28 -87 -42 -96 -62 -5 -11 -19
-25 -31 -31 -13 -5 -23 -13 -23 -17 0 -5 -7 -8 -15 -8 -8 0 -15 5 -15 10 0 20
-51 10 -74 -15 -13 -14 -32 -25 -43 -25 -29 0 -73 -23 -73 -39 0 -8 -8 -20
-17 -27 -22 -16 -53 -18 -53 -3 0 14 -64 3 -94 -16 -12 -8 -26 -12 -29 -8 -4
3 -7 1 -7 -5 0 -6 -9 -14 -20 -17 -11 -3 -20 -10 -20 -15 0 -5 -22 -32 -50
-61 -27 -29 -50 -57 -50 -63 0 -7 -14 -20 -31 -30 -17 -10 -45 -31 -63 -47
-19 -16 -43 -28 -57 -27 -51 3 -79 -2 -79 -16 0 -8 -16 -16 -40 -20 -24 -4
-43 -14 -50 -26 -6 -11 -22 -23 -35 -26 -16 -4 -25 -13 -25 -26 0 -16 -5 -18
-32 -13 -30 5 -37 1 -77 -45 -25 -27 -49 -50 -55 -50 -6 0 -4 5 4 11 12 9 12
10 -3 5 -10 -3 -22 -6 -27 -6 -5 0 -11 -9 -15 -19 -3 -11 -12 -18 -19 -15 -8
3 -20 -9 -31 -31 -9 -21 -30 -44 -46 -54 -16 -9 -29 -22 -29 -29 0 -6 -4 -11
-9 -10 -5 2 -9 0 -10 -4 -3 -27 2 -36 22 -43 21 -7 21 -7 2 -12 -10 -3 -21 0
-23 6 -2 6 -15 11 -28 11 -19 0 -26 -6 -31 -30 -5 -25 -9 -29 -26 -24 -16 5
-19 3 -14 -10 6 -14 3 -16 -13 -11 -14 4 -22 1 -28 -12 -21 -50 -54 -92 -69
-86 -12 5 -14 1 -8 -16 4 -15 3 -21 -7 -19 -8 2 -14 -9 -16 -30 -2 -18 -10
-36 -18 -39 -8 -3 -14 -10 -14 -17 0 -6 -11 -24 -25 -40 -13 -16 -27 -37 -30
-47 -4 -11 -11 -19 -17 -19 -5 0 -8 -6 -5 -14 3 -8 -1 -20 -9 -26 -8 -7 -14
-21 -14 -31 0 -10 -4 -21 -10 -24 -5 -3 -10 -15 -10 -26 0 -11 -14 -45 -31
-75 -19 -35 -28 -62 -24 -74 4 -12 2 -20 -5 -20 -11 0 -40 -58 -40 -80 0 -5 7
-10 15 -10 16 0 32 -46 20 -58 -3 -4 -11 1 -16 11 -11 19 -29 14 -29 -9 0 -8
7 -14 15 -14 8 0 15 -6 15 -14 0 -28 -12 -46 -31 -46 -13 0 -19 -7 -19 -22 0
-13 -3 -32 -6 -44 -3 -13 1 -28 11 -37 15 -15 14 -18 -4 -34 -19 -16 -20 -19
-5 -41 15 -23 15 -27 -6 -64 -18 -32 -21 -48 -15 -84 5 -35 3 -45 -9 -50 -27
-10 -20 -37 8 -32 21 4 25 0 31 -29 4 -23 1 -38 -9 -48 -19 -19 -36 -19 -36 0
0 8 7 15 15 15 21 0 19 26 -2 34 -28 11 -58 -43 -33 -59 15 -9 2 -25 -19 -25
-27 0 -35 -67 -9 -74 14 -3 17 0 13 13 -7 24 31 59 47 43 9 -9 7 -16 -5 -30
-20 -22 -13 -32 22 -32 33 0 45 10 48 37 2 17 -1 21 -15 17 -9 -3 -5 3 11 12
25 17 37 44 19 44 -11 0 -30 70 -20 76 30 18 65 138 47 160 -17 20 -20 74 -5
74 21 0 28 31 11 50 -22 24 -19 33 9 26 19 -5 29 0 40 16 8 12 13 25 9 31 -3
5 0 20 7 33 10 18 10 26 1 38 -10 12 -10 21 2 43 9 15 25 51 37 78 12 28 31
68 42 90 42 83 72 171 71 212 0 29 4 43 13 43 23 0 67 67 60 93 -4 17 2 29 29
50 19 15 35 35 35 43 0 9 5 12 13 8 8 -6 8 -3 -1 9 -12 14 -11 20 5 41 10 14
23 26 29 26 16 0 39 29 39 49 0 9 8 16 20 16 26 0 75 33 75 51 0 8 8 14 19 14
10 0 21 9 24 20 3 11 10 20 17 20 6 0 8 -6 4 -12 -4 -7 7 0 25 17 20 18 30 36
27 47 -3 13 2 18 17 18 26 0 61 27 70 53 4 9 14 17 23 17 9 0 41 12 71 26 38
19 52 31 48 42 -4 12 -2 12 8 3 11 -8 23 -4 56 20 46 32 78 35 73 5 -2 -10 1
-15 7 -12 5 4 12 2 16 -4 3 -5 -5 -12 -19 -16 -16 -4 -34 -22 -50 -49 l-24
-44 25 10 c31 12 36 11 28 -1 -12 -20 8 -10 31 16 13 14 24 34 24 45 0 10 4
19 9 19 11 0 72 96 65 103 -3 2 5 7 18 10 13 4 40 29 61 56 26 34 43 48 54 44
12 -5 14 -1 9 15 -5 15 -2 22 14 27 11 3 20 15 20 25 0 13 14 24 46 36 44 17
45 18 40 53 l-5 36 12 -37 c7 -20 15 -40 19 -44 11 -10 49 26 41 38 -8 15 18
28 44 22 12 -3 32 1 45 10 12 9 32 16 45 16 12 0 28 9 36 20 8 12 27 23 43 26
16 3 47 13 69 23 22 10 51 21 65 24 14 4 35 15 47 27 12 11 27 20 32 20 6 0
29 13 53 29 24 16 63 32 88 36 25 4 54 14 65 21 11 8 33 14 51 14 17 0 52 11
79 25 27 13 52 22 56 20 11 -7 79 24 79 36 0 5 6 9 13 8 25 -4 48 13 42 31 -8
25 11 35 24 13 6 -10 11 -16 11 -13 15 97 -3 196 -42 232 -14 12 -17 24 -12
44 5 17 3 25 -3 21 -14 -9 -30 12 -35 42 -3 24 -4 24 -21 7 -17 -18 -18 -17
-12 10 4 16 8 34 10 41 2 6 0 13 -5 15 -5 2 -14 26 -20 53 -7 28 -18 70 -26
94 -7 24 -11 47 -8 53 11 17 -26 59 -46 53 -24 -8 -34 9 -19 33 10 16 5 27
-35 78 l-46 59 -57 2 c-85 3 -156 10 -173 17 -19 8 -129 15 -295 20 -135 4
-205 10 -255 21 -25 5 -30 3 -30 -12 0 -10 -11 -23 -23 -29 -21 -9 -23 -8 -19
12 5 29 -12 38 -78 40 -30 0 -69 4 -87 8 -19 4 -34 3 -38 -3 -8 -14 -58 -14
-88 0 -19 8 -31 7 -54 -5 -27 -13 -32 -13 -53 1 -18 13 -24 13 -30 2 -7 -11
-12 -10 -27 3 -10 9 -36 18 -58 21 -48 6 -95 16 -115 25 -19 8 -44 10 -158 15
-70 3 -97 8 -112 22 -10 9 -26 15 -35 12 -8 -4 -15 -2 -15 4 0 5 -11 15 -25
21 -14 6 -25 17 -25 23 0 18 -34 45 -58 45 -19 0 -20 3 -10 25 8 18 8 28 0 38
-6 7 -14 32 -18 55 -4 24 -20 59 -35 79 -20 24 -27 42 -23 58 4 15 0 24 -10
28 -10 4 -16 1 -16 -8 0 -8 -4 -15 -9 -15 -5 0 -7 22 -5 49 3 28 0 52 -6 56
-5 3 -10 15 -10 26 0 12 -10 23 -25 29 -17 6 -23 14 -19 25 7 17 -24 95 -37
95 -4 0 -25 18 -46 40 -23 25 -45 39 -55 37 -19 -5 -72 27 -74 45 -1 7 -2 20
-3 30 -1 17 -62 58 -87 58 -8 0 -17 8 -21 18 -3 9 -15 27 -25 39 -17 18 -19
30 -13 77 4 30 13 61 21 67 8 6 14 20 14 31 0 15 5 18 23 13 12 -4 26 -11 32
-16 19 -18 43 -9 53 20 9 24 8 31 -6 36 -15 6 -15 7 -1 15 20 11 59 2 59 -15
0 -6 -9 -20 -20 -30 -11 -10 -20 -24 -20 -32 0 -16 -3 -15 39 -3 23 6 39 6 47
-1 17 -14 148 15 180 40 14 11 31 17 39 15 8 -3 30 11 50 31 28 27 36 42 31
58 -3 12 -6 28 -6 35 0 6 -9 12 -19 12 -11 0 -21 5 -23 11 -6 17 -65 1 -88
-23 -19 -21 -36 -25 -130 -34 -30 -2 -56 -9 -58 -14 -2 -5 -11 -5 -21 2 -12 7
-34 8 -72 1 -55 -9 -80 -5 -144 21 -16 7 -46 19 -65 26 -63 24 -130 104 -130
155 0 14 -4 25 -9 25 -5 0 -11 16 -13 35 -3 29 -1 34 12 30 14 -5 16 3 14 52
-6 120 -19 195 -37 208 -21 15 -22 34 -3 41 17 6 16 53 -2 97 -7 16 -12 34
-12 40 0 7 -9 23 -20 37 -11 14 -20 30 -20 36 0 27 -26 63 -41 59 -9 -3 -19 1
-22 9 -6 15 -72 27 -150 26 -36 -1 -61 -9 -95 -30 l-46 -29 -23 25 c-12 13
-26 24 -32 24 -5 0 -12 17 -16 38 -3 20 -13 46 -20 56 -14 19 -15 19 -36 0
-21 -19 -21 -19 -17 6 2 14 9 24 16 22 11 -2 16 10 13 30 0 4 5 5 12 2 8 -3
18 10 26 33 7 21 24 47 37 59 19 15 25 31 26 65 2 30 8 48 20 57 10 7 18 20
18 28 0 8 7 17 16 21 11 4 13 13 9 33 -4 17 -1 31 9 39 31 26 71 125 69 173
-1 26 2 50 7 53 15 10 12 45 -5 51 -9 4 -15 19 -15 35 0 17 6 32 15 35 18 7
20 35 3 52 -10 10 -10 17 -1 31 7 11 8 23 2 32 -5 8 -9 27 -9 42 0 16 -5 37
-10 48 -8 13 -7 31 0 59 9 35 15 40 48 46 20 4 42 13 47 21 14 19 72 -1 80
-28 4 -10 10 -19 15 -19 5 0 16 -3 24 -6 12 -5 15 -2 10 12 -4 11 -13 24 -21
31 -12 9 -12 15 -2 31 16 26 5 52 -23 52 -13 0 -43 9 -67 20 -31 15 -47 17
-56 10 -8 -6 -15 -7 -17 -2 -4 12 -114 67 -153 77 -62 15 -113 14 -120 -2 -4
-12 -9 -13 -17 -5 -8 8 -8 15 2 27 7 8 11 16 9 18 -39 22 -76 38 -129 54 -36
11 -108 35 -160 53 -52 17 -108 34 -124 37 -16 3 -37 14 -47 24 -11 11 -25 19
-33 19 -26 0 -81 77 -100 138 -10 33 -29 81 -42 106 -13 25 -24 52 -24 61 0 8
-8 23 -17 33 -12 11 -19 35 -20 71 -1 29 -7 59 -13 66 -6 8 -11 40 -11 72 1
32 1 77 1 100 1 52 -17 123 -30 123 -6 0 -10 4 -10 9 0 5 10 7 22 3 13 -3 19
-1 14 6 -3 5 -1 33 5 62 9 44 9 54 -6 70 -15 17 -15 19 0 27 12 7 17 31 20
114 3 57 10 150 15 207 6 57 11 122 10 145 0 23 5 78 10 122 6 44 12 96 14
115 2 19 16 83 30 142 20 82 24 112 16 127 -7 15 -7 30 3 58 35 98 47 142 41
157 -3 9 -2 16 3 16 11 0 36 107 28 121 -4 6 0 18 8 27 9 9 16 28 16 42 2 68
18 164 29 168 6 2 21 31 31 65 11 34 27 80 35 102 8 22 12 50 10 61 -3 12 -1
25 5 28 6 4 11 18 11 30 0 13 14 40 30 61 17 21 30 43 30 50 0 7 11 38 25 69
14 31 25 65 25 76 0 11 4 20 10 20 15 0 60 103 60 137 0 17 10 42 21 57 18 23
32 80 41 169 1 9 10 17 20 17 19 0 34 40 25 64 -4 10 -1 13 9 9 16 -6 20 22 4
32 -6 4 3 20 21 37 37 37 79 102 79 122 0 7 7 19 15 26 9 7 14 20 13 29 -4 20
30 59 159 182 81 77 171 175 186 204 8 17 13 42 10 59 -5 26 -4 27 14 15 17
-10 24 -9 46 7 15 10 27 25 27 33 0 17 29 40 51 41 8 0 26 12 40 26 13 14 34
30 47 35 12 5 22 15 22 23 0 8 9 17 19 21 11 3 66 52 124 109 92 92 109 104
147 109 24 3 47 13 52 21 13 23 61 66 73 66 6 0 26 16 45 35 19 19 38 35 44
35 18 0 86 53 86 67 0 8 6 13 13 11 17 -4 65 44 49 50 -12 4 -17 32 -7 32 3 0
14 -6 26 -12 17 -11 22 -10 30 5 6 9 20 17 32 17 35 1 60 25 52 52 -4 16 -3
19 3 9 6 -8 15 -10 23 -5 8 4 22 8 32 9 10 0 23 11 30 25 9 18 21 25 42 25 25
0 31 5 40 38 9 33 13 37 23 24 7 -8 10 -22 6 -31 -5 -14 -3 -15 21 -6 42 16
89 44 98 58 4 6 12 12 17 12 6 0 19 8 30 18 11 9 37 26 58 38 20 11 43 33 50
47 11 22 18 26 38 21 17 -4 24 -2 24 8 0 7 16 22 35 32 19 11 35 23 35 29 0 5
7 7 15 3 16 -6 26 3 65 52 21 26 32 32 65 32 23 0 53 9 69 19 17 11 33 18 37
15 4 -2 10 0 14 5 3 5 34 23 70 40 68 32 109 76 86 91 -7 4 -9 10 -4 13 5 3
15 2 23 -3 8 -5 21 -5 29 -1 9 5 31 9 49 9 18 0 39 5 45 10 7 5 27 12 45 15
17 4 40 8 50 11 9 2 24 5 33 5 9 1 19 10 22 21 3 11 14 20 24 20 10 0 24 5 31
12 7 7 37 13 68 14 31 1 61 7 66 12 6 6 24 8 39 5 18 -3 38 1 53 11 14 9 32
13 41 10 11 -5 18 0 22 16 5 18 11 21 33 16 15 -3 30 -2 34 1 6 7 53 13 102
14 26 0 31 4 27 20 -6 20 21 59 40 59 6 0 3 -8 -6 -18 -22 -24 -22 -36 -1 -28
9 4 23 1 30 -5 19 -16 115 8 132 33 15 21 32 15 32 -12 0 -25 14 -28 105 -18
44 5 90 9 102 10 13 0 20 5 16 11 -4 6 -1 7 7 2 7 -4 15 -3 19 3 4 7 20 8 46
2 45 -10 64 0 41 22 -13 14 -12 18 10 38 31 30 31 44 -1 36 -16 -4 -36 1 -57
14 -39 24 -66 26 -74 6z m-1667 -618 c-3 -8 -6 -5 -6 6 -1 11 2 17 5 13 3 -3
4 -12 1 -19z m-2792 -3615 c18 -14 18 -15 2 -9 -10 3 -23 6 -28 6 -5 0 -9 5
-9 10 0 14 12 12 35 -7z m-65 -793 c0 -5 -4 -10 -10 -10 -5 0 -10 5 -10 10 0
6 5 10 10 10 6 0 10 -4 10 -10z m800 -2210 c0 -5 -5 -10 -11 -10 -5 0 -7 5 -4
10 3 6 8 10 11 10 2 0 4 -4 4 -10z m1290 -1195 c0 -8 -4 -15 -10 -15 -5 0 -10
7 -10 15 0 8 5 15 10 15 6 0 10 -7 10 -15z m20 -1160 c0 -10 -10 -15 -27 -15
-27 1 -27 1 -9 15 25 19 36 19 36 0z m752 -217 c-7 -7 -12 -8 -12 -2 0 14 12
26 19 19 2 -3 -1 -11 -7 -17z m1226 -247 c3 -8 -1 -12 -9 -9 -7 2 -15 10 -17
17 -3 8 1 12 9 9 7 -2 15 -10 17 -17z m-1611 -1597 c-3 -3 -12 -4 -19 -1 -8 3
-5 6 6 6 11 1 17 -2 13 -5z m-218 -185 c-16 -10 -23 -4 -14 10 3 6 11 8 17 5
6 -4 5 -9 -3 -15z m-315 -528 c3 -5 -1 -11 -9 -15 -9 -3 -15 0 -15 9 0 16 16
20 24 6z m-99 -711 c3 -5 1 -10 -4 -10 -6 0 -11 5 -11 10 0 6 2 10 4 10 3 0 8
-4 11 -10z"/>
<path d="M9416 18732 c-4 -6 -22 -8 -41 -5 -27 4 -35 2 -35 -10 0 -14 -23 -30
-47 -32 -6 0 -24 -11 -39 -24 l-27 -23 29 -23 c25 -20 64 -24 64 -6 0 4 11 8
25 9 28 2 34 -14 8 -21 -13 -4 -12 -5 5 -6 12 0 25 6 28 14 8 19 21 19 58 0
15 -8 47 -17 71 -19 23 -1 47 -6 52 -9 6 -4 35 0 64 9 52 16 54 16 67 -5 8
-12 24 -21 36 -21 11 0 55 -7 96 -16 220 -48 290 -60 306 -51 10 6 20 5 27 -2
18 -18 44 -12 52 12 4 14 8 17 12 9 3 -7 0 -19 -7 -26 -14 -18 2 -30 29 -21
12 3 33 -4 56 -19 20 -14 57 -28 83 -32 26 -4 72 -20 103 -35 31 -16 64 -29
73 -29 9 0 25 -5 35 -12 15 -9 26 -9 44 -1 22 10 27 9 41 -12 16 -25 106 -72
157 -82 16 -3 29 -9 29 -14 0 -5 8 -9 19 -9 10 0 24 -7 31 -15 7 -8 21 -15 31
-15 20 0 59 -33 59 -49 0 -5 15 -13 33 -16 17 -4 47 -21 66 -38 19 -16 48 -35
65 -42 17 -7 44 -25 59 -39 15 -14 32 -26 37 -26 5 0 15 -8 22 -17 19 -26 74
-63 93 -63 9 0 18 -7 21 -15 3 -8 34 -28 68 -44 34 -16 68 -36 75 -45 7 -9 22
-16 32 -16 10 0 21 -4 24 -10 8 -13 49 -12 110 4 37 10 51 19 55 35 l5 23 25
-27 c20 -22 31 -25 57 -20 21 4 44 0 64 -10 18 -10 41 -14 55 -11 19 5 30 0
50 -24 14 -16 32 -30 39 -30 7 0 24 -9 38 -20 30 -24 37 -25 37 -5 0 8 4 15 8
15 14 0 32 -23 32 -41 0 -10 11 -26 25 -37 14 -11 25 -26 25 -34 0 -16 61 -78
77 -78 6 0 18 -11 27 -24 11 -17 22 -23 36 -19 12 3 21 0 22 -8 0 -8 2 -18 3
-24 2 -5 3 -16 4 -22 0 -7 6 -13 12 -13 6 0 18 -9 27 -19 10 -11 64 -61 122
-112 58 -51 113 -103 123 -116 10 -13 23 -21 28 -18 5 4 9 -1 9 -9 0 -9 9 -21
20 -28 11 -7 20 -18 20 -25 0 -6 16 -21 35 -33 19 -12 35 -28 35 -35 0 -7 7
-15 15 -19 8 -3 15 -17 15 -31 0 -14 5 -25 11 -25 6 0 24 -14 41 -30 24 -24
28 -33 18 -45 -14 -17 3 -55 26 -55 10 0 13 -7 8 -25 -4 -15 -2 -25 5 -25 6 0
11 -9 11 -20 0 -11 4 -20 10 -20 5 0 9 -3 8 -7 -3 -13 13 -53 21 -53 5 0 11
-13 15 -30 4 -21 11 -30 26 -30 11 0 20 6 20 13 0 6 5 4 11 -6 7 -11 7 -22 1
-30 -15 -19 -22 -113 -10 -125 6 -6 14 -28 17 -49 5 -28 11 -37 24 -35 18 3
25 -24 8 -30 -12 -4 13 -122 33 -158 8 -14 17 -41 21 -60 4 -19 16 -46 26 -59
11 -14 19 -40 19 -62 0 -21 5 -41 10 -44 6 -3 10 -15 10 -26 0 -27 26 -24 56
6 29 29 34 31 34 10 0 -8 -4 -15 -9 -15 -5 0 -11 -9 -14 -21 -3 -11 -15 -23
-27 -26 -30 -8 -19 -27 18 -31 26 -3 32 -8 32 -27 0 -12 -6 -25 -14 -28 -23
-9 -26 -59 -5 -104 10 -23 19 -49 19 -57 0 -8 6 -17 13 -19 10 -4 10 -6 0 -6
-17 -1 -17 -21 0 -21 8 0 19 -11 26 -24 10 -19 10 -27 0 -43 -10 -17 -9 -30 6
-74 10 -30 19 -80 21 -112 3 -59 15 -87 40 -87 8 0 14 -4 14 -10 0 -5 -9 -10
-21 -10 -16 0 -19 -4 -14 -17 5 -10 9 -56 10 -103 2 -47 8 -98 15 -115 13 -32
16 -46 25 -135 3 -30 13 -62 22 -72 14 -16 14 -18 -1 -24 -20 -8 -20 -23 1
-46 14 -16 14 -18 0 -18 -10 0 -13 -6 -10 -19 3 -13 11 -18 21 -15 14 5 14 4
0 -6 -22 -14 -23 -30 -3 -30 8 0 15 -5 15 -11 0 -5 -5 -7 -10 -4 -7 5 -9 -11
-7 -45 3 -29 10 -56 17 -60 8 -5 9 -10 2 -14 -12 -7 -4 -37 12 -48 7 -5 8 -11
1 -15 -5 -5 -11 -43 -11 -85 -2 -62 1 -76 12 -71 8 3 14 1 14 -5 0 -6 -5 -12
-11 -14 -17 -6 -14 -269 3 -279 10 -6 10 -13 2 -26 -12 -20 -7 -92 8 -110 7
-9 7 -17 -1 -27 -17 -20 -24 -54 -25 -106 0 -25 -3 -47 -7 -50 -10 -8 -42
-170 -43 -225 -1 -27 -5 -56 -9 -63 -5 -7 -4 -19 3 -27 7 -9 8 -15 0 -20 -5
-3 -10 -17 -10 -30 0 -13 -5 -27 -10 -30 -6 -4 -8 -25 -6 -48 4 -32 0 -51 -19
-85 -30 -54 -32 -82 -6 -82 15 0 31 -18 31 -35 0 -10 -47 -12 -59 -2 -12 10
-13 9 -7 -8 11 -25 10 -56 -2 -64 -5 -3 -12 -13 -15 -21 -4 -8 -16 -28 -26
-45 -13 -21 -18 -41 -14 -66 4 -30 1 -38 -21 -52 -14 -10 -26 -24 -26 -31 0
-8 -7 -16 -15 -20 -21 -8 -19 -33 4 -53 11 -9 17 -21 14 -26 -3 -4 -15 2 -27
15 l-21 23 -3 -23 c-2 -12 -8 -22 -13 -22 -11 0 -41 -70 -35 -84 2 -6 7 -3 11
7 7 16 8 16 19 2 16 -22 70 -10 61 13 -8 21 24 54 46 47 12 -4 21 3 30 25 8
16 18 30 23 30 4 0 6 12 3 27 -4 20 4 39 34 78 45 59 51 101 18 131 l-21 19
24 5 c16 4 23 13 23 30 0 25 19 38 30 21 16 -27 34 -8 46 47 7 31 19 65 27 74
8 10 11 25 7 38 -4 11 -2 26 3 33 9 11 25 72 28 107 1 8 4 22 7 30 3 8 8 33
11 55 2 22 12 74 21 115 9 41 13 90 10 109 -4 23 -2 37 7 42 15 10 18 80 3 92
-6 4 -3 13 8 21 13 10 15 15 5 19 -10 3 -10 9 -2 24 8 12 9 44 5 91 -4 40 -3
72 1 72 4 0 8 5 8 11 0 6 -9 8 -22 3 -22 -6 -22 -6 -5 13 21 24 13 55 -11 45
-13 -4 -11 1 6 22 25 33 29 74 7 82 -14 6 -14 8 1 19 14 10 16 25 12 87 -3 41
-12 89 -21 107 -15 29 -14 34 1 61 11 20 13 33 7 38 -11 8 -12 29 0 55 9 20
-2 87 -14 87 -5 0 -14 21 -20 46 -9 35 -9 49 0 60 9 11 8 18 -2 30 -10 13 -10
17 0 24 9 5 11 20 6 49 -6 37 -10 41 -36 41 -17 0 -29 5 -29 13 0 7 12 13 28
12 24 0 27 3 25 29 -1 15 -10 35 -20 43 -13 10 -15 16 -5 19 19 9 14 62 -7 81
-16 13 -18 21 -10 35 12 22 2 148 -11 148 -13 0 -16 41 -8 83 6 29 5 42 -7 53
-18 18 -19 38 -5 64 8 14 6 30 -6 57 -9 21 -19 65 -24 98 -4 34 -17 82 -29
107 -11 26 -21 60 -21 76 0 36 -34 106 -60 125 -11 7 -17 17 -14 20 4 4 2 12
-4 20 -7 8 -7 18 -2 27 10 17 -5 40 -26 40 -17 0 -18 22 -3 37 12 12 -14 102
-32 114 -6 3 -12 34 -15 69 -6 76 -8 80 -35 73 -19 -5 -21 -3 -15 25 4 17 3
33 -3 36 -5 4 -7 22 -4 41 3 22 0 47 -11 69 -9 19 -16 39 -16 45 0 20 -30 11
-39 -11 -6 -18 -9 -19 -14 -5 -4 10 -2 17 2 17 5 0 7 9 4 20 -3 13 -13 19 -27
17 -16 -2 -22 4 -24 25 -3 22 2 30 21 37 14 6 27 14 30 18 10 15 -11 87 -28
99 -12 9 -15 19 -10 35 6 18 4 21 -9 16 -9 -4 -16 -2 -16 3 0 6 5 10 10 10 18
0 11 20 -16 43 -14 12 -32 34 -40 50 -8 15 -23 27 -34 27 -11 0 -20 5 -20 10
0 6 5 10 10 10 17 0 11 29 -10 50 -11 11 -20 27 -20 36 0 8 -4 12 -10 9 -6 -4
-10 8 -10 29 0 19 -5 38 -11 41 -5 4 -14 18 -19 31 -5 13 -18 24 -27 24 -12 0
-25 15 -36 40 -12 28 -31 49 -62 68 -28 16 -45 34 -45 46 0 21 -183 204 -238
238 -20 12 -48 21 -64 20 -24 -2 -28 1 -28 23 0 26 -6 33 -101 115 -29 25 -64
58 -78 74 -49 57 -79 81 -127 105 -27 14 -57 31 -66 39 -9 8 -25 11 -37 7 -11
-3 -28 -2 -38 4 -86 46 -136 60 -148 41 -5 -8 -11 -7 -21 1 -8 6 -27 9 -46 5
-18 -3 -75 0 -126 8 -82 12 -99 19 -145 54 -29 21 -62 42 -74 46 -12 4 -27 13
-33 21 -7 8 -20 15 -30 15 -9 0 -22 11 -28 25 -6 14 -16 25 -21 25 -6 0 -26
14 -45 31 -20 17 -40 28 -45 25 -5 -4 -13 0 -18 7 -10 17 -66 47 -88 47 -8 0
-15 5 -15 11 0 8 -4 8 -14 0 -11 -9 -15 -7 -19 9 -6 24 -52 28 -61 4 -3 -8
-10 -13 -16 -9 -6 4 -5 13 2 25 10 16 8 22 -13 39 -13 11 -45 25 -71 31 -27 7
-48 16 -48 21 0 5 -8 13 -17 16 -9 4 -25 15 -35 25 -10 10 -28 19 -40 19 -13
1 -35 2 -51 3 -15 1 -34 11 -43 24 -10 15 -25 22 -48 22 -17 0 -36 4 -41 8 -6
5 -29 14 -51 20 -23 7 -44 19 -47 27 -3 7 -22 17 -42 21 -19 3 -38 10 -41 15
-3 5 -16 9 -30 9 -14 0 -36 7 -49 16 -13 9 -29 13 -35 9 -5 -3 -20 1 -31 9
-13 9 -33 13 -49 10 -18 -4 -33 0 -44 11 -9 9 -33 18 -54 20 -20 1 -48 7 -62
12 -78 32 -338 43 -348 15 -6 -19 -22 -14 -22 7 0 22 -28 35 -54 25 -9 -3 -16
-15 -16 -25 0 -10 -6 -19 -14 -19 -18 0 -39 27 -31 40 4 6 -5 10 -22 11 -46 1
-87 6 -109 14 -12 4 -25 2 -28 -3z m144 -42 c0 -5 -4 -10 -10 -10 -5 0 -10 5
-10 10 0 6 5 10 10 10 6 0 10 -4 10 -10z m1200 -390 c0 -5 -4 -10 -10 -10 -5
0 -10 5 -10 10 0 6 5 10 10 10 6 0 10 -4 10 -10z m1240 -440 c0 -5 -4 -10 -10
-10 -5 0 -10 5 -10 10 0 6 5 10 10 10 6 0 10 -4 10 -10z m177 -65 c9 -25 -4
-29 -17 -6 -7 15 -7 21 0 21 6 0 13 -7 17 -15z m813 -949 c0 -3 -4 -8 -10 -11
-5 -3 -10 -1 -10 4 0 6 5 11 10 11 6 0 10 -2 10 -4z m160 -446 c0 -5 -4 -10
-10 -10 -5 0 -10 5 -10 10 0 6 5 10 10 10 6 0 10 -4 10 -10z m140 -214 c0 -8
-7 -16 -15 -20 -8 -3 -15 -12 -15 -20 0 -14 -34 -28 -44 -18 -6 6 54 70 67 71
4 1 7 -5 7 -13z m-14 -133 c-10 -10 -19 5 -10 18 6 11 8 11 12 0 2 -7 1 -15
-2 -18z m284 -1350 c0 -7 -4 -13 -9 -13 -5 0 -11 6 -14 13 -3 8 1 14 9 14 8 0
14 -6 14 -14z m4 -208 c3 -8 1 -15 -4 -15 -6 0 -10 7 -10 15 0 8 2 15 4 15 2
0 6 -7 10 -15z m6 -619 c0 -3 -4 -8 -10 -11 -5 -3 -10 -1 -10 4 0 6 5 11 10
11 6 0 10 -2 10 -4z m40 -66 c-19 -13 -30 -13 -30 0 0 6 10 10 23 10 18 0 19
-2 7 -10z m-95 -780 c3 -5 -3 -10 -15 -10 -12 0 -18 5 -15 10 3 6 10 10 15 10
5 0 12 -4 15 -10z m-85 -90 c0 -5 -4 -10 -10 -10 -5 0 -10 5 -10 10 0 6 5 10
10 10 6 0 10 -4 10 -10z m-75 -250 c7 -33 -7 -60 -31 -60 -8 0 -14 7 -14 15 0
8 7 15 15 15 8 0 15 6 15 14 0 8 -7 16 -15 20 -21 8 -19 26 4 26 13 0 21 -9
26 -30z"/>
<path d="M7965 18531 c-3 -5 -1 -12 5 -16 12 -7 30 2 30 16 0 12 -27 12 -35 0z"/>
<path d="M5457 18523 c-8 -8 -9 -73 -1 -73 14 0 42 21 48 35 10 26 -29 57 -47
38z"/>
<path d="M5371 18454 c-6 -14 -8 -30 -5 -36 4 -7 2 -8 -5 -4 -6 4 -14 1 -17
-7 -3 -8 -14 -12 -28 -10 -29 6 -57 -24 -35 -38 24 -15 54 -10 90 16 41 31 49
50 35 82 -14 29 -20 29 -35 -3z"/>
<path d="M5246 18339 c4 -8 0 -9 -15 -4 -15 5 -23 1 -28 -12 -3 -10 -13 -26
-21 -36 -8 -9 -13 -20 -10 -23 11 -10 87 31 92 50 6 22 0 36 -15 36 -6 0 -7
-5 -3 -11z"/>
<path d="M5105 18200 c18 -19 17 -20 -2 -20 -28 0 -62 -30 -68 -59 l-4 -24 22
22 c13 11 27 21 31 21 5 0 26 18 47 40 22 22 35 40 31 40 -4 0 -13 -5 -19 -11
-8 -8 -13 -8 -17 0 -4 6 -14 11 -23 11 -14 0 -14 -3 2 -20z"/>
<path d="M4957 18046 c-15 -12 -16 -15 -2 -26 18 -15 28 -8 30 20 2 23 -3 24
-28 6z"/>
<path d="M4892 17979 c-8 -12 -19 -18 -28 -15 -9 3 -19 -6 -27 -27 -8 -18 -21
-38 -30 -46 -10 -7 -17 -17 -17 -22 0 -4 11 3 25 16 13 14 34 25 45 25 12 0
18 5 15 10 -3 6 2 13 12 17 26 9 53 34 53 50 0 21 -34 15 -48 -8z"/>
<path d="M4690 17750 c0 -5 5 -10 11 -10 5 0 7 5 4 10 -3 6 -8 10 -11 10 -2 0
-4 -4 -4 -10z"/>
<path d="M4625 17710 c3 -5 8 -10 11 -10 2 0 4 5 4 10 0 6 -5 10 -11 10 -5 0
-7 -4 -4 -10z"/>
<path d="M4607 17681 c3 -12 9 -21 14 -21 14 0 11 16 -5 29 -12 10 -13 8 -9
-8z"/>
<path d="M4570 17640 c0 -5 5 -10 10 -10 6 0 10 5 10 10 0 6 -4 10 -10 10 -5
0 -10 -4 -10 -10z"/>
<path d="M4326 17372 c-3 -6 -1 -14 5 -17 15 -10 25 3 12 16 -7 7 -13 7 -17 1z"/>
<path d="M4275 17311 c-3 -5 -1 -12 5 -16 5 -3 10 1 10 9 0 18 -6 21 -15 7z"/>
<path d="M11315 17256 c-14 -10 -25 -11 -38 -5 -23 13 -33 -15 -29 -78 2 -22
32 -34 32 -13 0 20 19 9 37 -20 11 -19 26 -30 39 -30 12 0 27 -7 34 -15 7 -9
21 -13 31 -10 14 5 17 2 13 -9 -3 -9 -1 -16 5 -16 7 0 29 -16 49 -36 29 -29
42 -34 64 -30 20 4 28 1 28 -8 0 -8 -6 -17 -12 -19 -7 -3 -3 -6 8 -6 12 -1 24
-8 28 -16 6 -17 26 -20 26 -4 0 5 14 28 31 49 31 38 31 40 15 65 -9 14 -29 31
-44 37 -15 5 -35 14 -44 19 -10 5 -24 6 -33 3 -17 -7 -45 12 -45 31 0 23 -65
82 -110 99 -25 10 -50 20 -55 22 -6 3 -19 -2 -30 -10z"/>
<path d="M10218 17116 c-40 -18 -46 -24 -41 -43 4 -17 1 -23 -11 -23 -22 0
-20 -11 8 -37 16 -16 40 -24 77 -27 30 -3 77 -11 106 -19 38 -11 53 -12 56 -3
3 8 8 8 18 -1 7 -7 23 -13 36 -13 12 0 26 -7 30 -15 5 -8 30 -26 57 -40 l49
-26 27 19 c24 18 27 19 37 4 9 -15 12 -15 27 -3 10 8 15 23 13 33 -3 10 -1 16
3 13 5 -3 11 -1 15 5 3 5 -3 10 -14 10 -13 0 -21 7 -21 18 0 18 -93 67 -109
58 -7 -5 -46 12 -101 43 -60 34 -87 43 -128 45 -26 1 -56 7 -67 12 -15 9 -31
6 -67 -10z"/>
<path d="M12424 16815 c-12 -8 -24 -11 -28 -8 -9 10 -7 -3 6 -34 6 -15 10 -32
9 -38 -11 -41 -8 -85 4 -95 8 -7 15 -17 15 -22 0 -5 9 -21 19 -36 11 -15 22
-45 26 -67 4 -22 10 -44 15 -50 4 -5 11 -28 15 -50 4 -22 11 -46 17 -52 12
-15 82 -18 73 -3 -3 6 0 10 8 10 27 0 50 37 44 72 -8 58 -50 159 -69 169 -11
6 -18 21 -18 39 0 16 -4 31 -9 34 -5 3 -13 25 -19 49 -13 51 -46 97 -71 97 -9
0 -26 -7 -37 -15z m63 -27 c-3 -8 -6 -5 -6 6 -1 11 2 17 5 13 3 -3 4 -12 1
-19z"/>
<path d="M3060 15677 c0 -8 7 -14 15 -14 8 0 15 6 15 14 0 7 -7 13 -15 13 -8
0 -15 -6 -15 -13z"/>
<path d="M2977 15516 c-6 -15 1 -26 15 -26 11 0 10 27 -1 34 -5 3 -11 0 -14
-8z"/>
<path d="M2930 15435 c7 -9 15 -13 17 -11 7 7 -7 26 -19 26 -6 0 -6 -6 2 -15z"/>
<path d="M2825 15230 c4 -6 11 -8 16 -5 14 9 11 15 -7 15 -8 0 -12 -5 -9 -10z"/>
<path d="M2616 14834 c-9 -22 -8 -23 14 -17 23 6 26 19 6 26 -8 3 -17 -1 -20
-9z"/>
<path d="M11748 14313 c7 -3 16 -2 19 1 4 3 -2 6 -13 5 -11 0 -14 -3 -6 -6z"/>
<path d="M2410 14275 c0 -8 5 -15 10 -15 6 0 10 7 10 15 0 8 -4 15 -10 15 -5
0 -10 -7 -10 -15z"/>
<path d="M11444 14265 c0 -14 6 -25 13 -25 20 0 43 12 43 22 0 5 -4 6 -10 3
-5 -3 -10 1 -10 9 0 9 -8 16 -19 16 -14 0 -19 -7 -17 -25z"/>
<path d="M11377 14273 c-8 -7 -9 -53 -2 -53 12 0 45 42 40 50 -7 11 -29 13
-38 3z"/>
<path d="M11860 14271 c0 -16 19 -23 40 -16 30 10 24 25 -10 25 -16 0 -30 -4
-30 -9z"/>
<path d="M11254 14226 c-11 -8 -34 -17 -51 -21 -18 -3 -33 -11 -33 -16 0 -5
-11 -7 -25 -3 -26 6 -31 -1 -16 -24 7 -11 16 -11 52 -1 24 7 47 12 52 11 4 -1
7 6 7 16 0 13 8 17 32 17 21 0 34 5 36 15 3 20 -29 23 -54 6z"/>
<path d="M11059 14159 c-14 -5 -32 -21 -39 -34 -15 -28 -25 -32 -33 -11 -7 18
-47 9 -47 -10 0 -8 6 -11 17 -7 10 4 14 2 10 -4 -4 -6 3 -13 14 -16 15 -4 30
5 55 31 19 20 34 31 34 24 0 -14 29 -16 49 -3 12 8 12 12 -2 25 -18 18 -21 18
-58 5z"/>
<path d="M10908 14073 c7 -3 16 -2 19 1 4 3 -2 6 -13 5 -11 0 -14 -3 -6 -6z"/>
<path d="M12050 14041 c0 -6 -3 -10 -7 -8 -10 3 -13 -6 -13 -38 0 -14 4 -25 8
-25 13 0 32 69 21 76 -5 3 -9 0 -9 -5z"/>
<path d="M10684 13996 c-40 -18 -50 -34 -31 -53 11 -11 19 -12 33 -5 11 6 27
13 37 16 9 3 17 12 17 20 0 10 -6 13 -17 9 -12 -5 -15 -2 -10 10 3 9 5 17 4
17 -1 -1 -16 -7 -33 -14z"/>
<path d="M10562 13929 c-13 -5 -20 -13 -17 -19 8 -13 55 -13 55 0 0 5 7 7 15
4 9 -4 15 0 15 10 0 18 -31 20 -68 5z"/>
<path d="M5971 13907 c-5 -14 -14 -28 -19 -31 -13 -8 -2 -96 16 -123 8 -13 24
-23 36 -23 28 0 43 -11 48 -35 3 -14 11 -19 28 -17 l24 2 -25 -26 c-15 -16
-20 -28 -13 -31 7 -2 10 -13 7 -23 -3 -11 0 -20 6 -20 6 0 11 6 12 13 0 6 4 2
9 -10 5 -13 19 -24 30 -24 11 -1 26 -2 33 -3 6 -1 16 -7 20 -13 14 -23 35 -14
42 18 4 19 16 34 31 39 27 11 32 29 9 31 -23 2 -29 4 -42 12 -6 4 -19 4 -29 0
-12 -4 -15 -3 -10 5 4 7 2 12 -3 12 -17 0 -71 51 -71 67 0 7 5 13 10 13 6 0 4
13 -5 30 -9 17 -19 30 -23 30 -13 0 -43 -40 -37 -49 3 -5 -1 -11 -9 -14 -9 -4
-15 4 -18 23 -3 19 0 26 8 23 19 -7 62 55 56 83 -2 13 -10 24 -17 24 -7 0 -15
10 -19 22 -5 22 -6 22 -20 3 -14 -19 -15 -19 -35 -1 -20 18 -21 18 -30 -7z"/>
<path d="M12045 13920 c3 -5 8 -10 11 -10 2 0 4 5 4 10 0 6 -5 10 -11 10 -5 0
-7 -4 -4 -10z"/>
<path d="M10487 13893 c-9 -9 -8 -25 2 -42 8 -12 12 -12 25 -2 22 19 21 51 -2
51 -10 0 -22 -3 -25 -7z"/>
<path d="M10420 13820 c0 -13 11 -13 30 0 12 8 11 10 -7 10 -13 0 -23 -4 -23
-10z"/>
<path d="M10317 13813 c-9 -2 -15 -8 -12 -13 3 -5 0 -12 -6 -16 -8 -4 -9 -3
-5 4 4 7 4 12 0 12 -12 0 -74 -41 -74 -50 0 -5 -14 -11 -30 -15 -17 -4 -45
-21 -63 -39 -18 -17 -44 -37 -59 -44 -27 -11 -38 -32 -18 -32 6 0 10 5 10 11
0 6 6 9 14 6 19 -8 114 40 120 61 3 9 15 23 26 29 16 11 18 10 14 -2 -9 -23
25 -18 80 13 59 33 78 58 56 72 -16 10 -24 11 -53 3z"/>
<path d="M5763 13763 c-7 -2 -13 -13 -13 -24 0 -14 -7 -19 -29 -19 -46 0 -52
-50 -18 -132 19 -45 50 -36 102 28 l36 43 -21 43 c-11 23 -20 48 -20 55 0 13
-15 16 -37 6z"/>
<path d="M5420 13689 c-13 -6 -35 -7 -47 -4 -19 4 -23 1 -23 -20 0 -14 5 -25
10 -25 15 0 12 -26 -5 -40 -17 -14 -20 -56 -5 -65 6 -3 10 -17 10 -31 0 -13 5
-33 10 -44 6 -11 15 -29 20 -40 6 -11 10 -28 10 -38 0 -11 18 -40 40 -64 45
-51 87 -69 106 -44 14 20 30 20 38 1 7 -18 35 -20 37 -2 10 101 9 106 -24 123
-37 19 -85 69 -98 101 -5 13 -14 20 -22 17 -8 -3 -20 2 -27 11 -11 13 -11 23
0 54 16 48 18 113 5 117 -5 1 -21 -2 -35 -7z"/>
<path d="M11972 13691 c4 -13 18 -16 19 -4 0 4 -5 9 -11 12 -7 2 -11 -2 -8 -8z"/>
<path d="M6020 13665 c0 -8 2 -15 4 -15 2 0 11 -3 20 -6 10 -4 16 -1 16 9 0 8
-7 18 -16 21 -22 9 -24 8 -24 -9z"/>
<path d="M11946 13663 c-6 -14 -5 -15 5 -6 7 7 10 15 7 18 -3 3 -9 -2 -12 -12z"/>
<path d="M9984 13615 c3 -8 -2 -19 -12 -24 -9 -5 -13 -13 -9 -17 4 -4 16 2 27
14 12 12 25 22 30 22 6 0 10 5 10 10 0 6 -12 10 -26 10 -19 0 -25 -4 -20 -15z"/>
<path d="M5018 13613 c-16 -2 -29 -10 -29 -16 -1 -7 -4 -25 -6 -42 -4 -33 -4
-49 -2 -183 1 -50 5 -95 10 -98 5 -3 9 -16 9 -30 0 -15 6 -24 15 -24 8 0 15
-8 15 -19 0 -10 8 -25 17 -32 15 -12 16 -12 10 5 -6 15 -4 17 10 11 39 -16 50
-16 70 2 20 17 20 20 6 78 -8 33 -17 92 -20 130 -3 39 -10 73 -16 77 -8 5 -7
14 1 32 16 37 0 80 -28 71 -16 -5 -20 -2 -20 19 0 14 -3 25 -7 25 -5 -1 -20
-4 -35 -6z"/>
<path d="M9910 13590 c0 -15 21 -23 32 -12 6 6 2 11 -11 15 -12 3 -21 1 -21
-3z"/>
<path d="M5808 13568 c-10 -8 -18 -32 -20 -58 l-3 -45 55 -3 c46 -2 57 1 67
17 17 28 -1 67 -40 86 -36 18 -39 18 -59 3z"/>
<path d="M6245 13540 c4 -6 11 -8 16 -5 14 9 11 15 -7 15 -8 0 -12 -5 -9 -10z"/>
<path d="M9780 13511 c0 -6 -7 -8 -15 -5 -23 9 -18 -4 9 -21 18 -12 29 -13 51
-5 32 12 25 25 -17 35 -18 5 -28 3 -28 -4z"/>
<path d="M2170 13496 c-6 -9 -10 -21 -7 -28 4 -9 6 -7 6 4 1 9 7 18 14 21 6 2
9 7 6 11 -3 4 -12 0 -19 -8z"/>
<path d="M9730 13476 c0 -9 7 -16 16 -16 17 0 14 22 -4 28 -7 2 -12 -3 -12
-12z"/>
<path d="M9656 13431 c-4 -7 -5 -15 -2 -18 9 -9 19 4 14 18 -4 11 -6 11 -12 0z"/>
<path d="M9605 13400 c4 -6 11 -8 16 -5 14 9 11 15 -7 15 -8 0 -12 -5 -9 -10z"/>
<path d="M10686 13129 c-13 -10 -28 -19 -34 -19 -12 0 -6 -80 8 -94 24 -24
113 -45 309 -71 105 -14 115 -14 132 1 15 13 16 20 6 35 -9 15 -9 24 1 40 16
25 1 49 -32 49 -11 0 -30 7 -40 15 -11 8 -33 15 -49 15 -16 0 -66 9 -111 19
-129 30 -162 32 -190 10z"/>
<path d="M9007 13083 c-4 -3 -7 -15 -7 -26 0 -25 13 -14 15 13 2 22 1 23 -8
13z"/>
<path d="M12915 13028 c4 -39 13 -68 23 -75 14 -12 14 -13 -1 -13 -20 0 -23
-39 -4 -59 10 -11 9 -13 -6 -7 -27 9 -40 -3 -22 -20 16 -16 20 -44 7 -44 -4 0
-13 5 -20 12 -15 15 -18 11 -25 -29 -4 -21 -3 -33 4 -33 7 0 9 -11 7 -25 -3
-14 0 -33 7 -42 11 -15 15 -12 33 24 23 44 49 62 58 38 9 -22 29 -18 43 9 11
19 10 29 -3 55 -9 17 -24 31 -33 31 -15 0 -15 1 0 18 10 10 17 30 17 44 0 13
3 28 6 31 19 19 50 116 42 131 -10 17 -53 22 -63 7 -3 -6 -18 -6 -38 0 -17 5
-33 9 -35 9 -2 0 -1 -28 3 -62z"/>
<path d="M8935 13010 c-3 -5 1 -10 10 -10 9 0 13 5 10 10 -3 6 -8 10 -10 10
-2 0 -7 -4 -10 -10z"/>
<path d="M8815 12960 c-3 -5 -1 -10 4 -10 6 0 11 5 11 10 0 6 -2 10 -4 10 -3
0 -8 -4 -11 -10z"/>
<path d="M11590 12940 c-9 -6 -10 -10 -3 -10 6 0 15 5 18 10 8 12 4 12 -15 0z"/>
<path d="M2065 12910 c3 -5 13 -10 21 -10 8 0 14 5 14 10 0 6 -9 10 -21 10
-11 0 -17 -4 -14 -10z"/>
<path d="M19920 12910 c0 -5 -7 -10 -15 -10 -8 0 -15 -7 -15 -15 0 -16 9 -19
34 -9 17 7 22 44 6 44 -5 0 -10 -4 -10 -10z"/>
<path d="M11511 12864 c0 -11 3 -14 6 -6 3 7 2 16 -1 19 -3 4 -6 -2 -5 -13z"/>
<path d="M8607 12854 c6 -15 31 -26 37 -16 2 4 -6 12 -19 18 -18 9 -22 9 -18
-2z"/>
<path d="M12580 12859 c-26 -9 -56 -47 -46 -57 4 -3 13 3 21 14 8 10 15 14 15
7 0 -6 -5 -15 -11 -19 -6 -3 -8 -15 -6 -25 4 -14 -3 -24 -24 -35 -17 -8 -35
-26 -41 -39 -6 -14 -22 -32 -35 -40 -12 -9 -23 -24 -23 -33 0 -22 35 -62 54
-62 36 0 78 15 83 29 4 9 20 30 37 47 58 58 73 79 80 112 7 29 6 32 -17 32
-14 0 -27 -4 -29 -9 -1 -5 -15 -13 -31 -16 l-27 -7 30 32 c34 37 39 54 11 45
-16 -5 -18 -2 -14 15 3 11 4 20 2 19 -2 0 -15 -5 -29 -10z m-91 -238 c9 -16 8
-18 -9 -14 -21 5 -25 15 -13 26 9 10 11 9 22 -12z"/>
<path d="M2069 12839 c-7 -14 -7 -25 -1 -31 6 -6 11 1 14 21 5 36 3 38 -13 10z"/>
<path d="M8605 12820 c3 -5 8 -10 11 -10 2 0 4 5 4 10 0 6 -5 10 -11 10 -5 0
-7 -4 -4 -10z"/>
<path d="M11475 12820 c3 -5 8 -10 11 -10 2 0 4 5 4 10 0 6 -5 10 -11 10 -5 0
-7 -4 -4 -10z"/>
<path d="M8531 12774 c0 -11 3 -14 6 -6 3 7 2 16 -1 19 -3 4 -6 -2 -5 -13z"/>
<path d="M11440 12750 c0 -5 -3 -9 -7 -9 -20 3 -24 -2 -13 -16 10 -12 14 -12
26 0 16 16 18 35 4 35 -5 0 -10 -4 -10 -10z"/>
<path d="M10390 12740 c-14 -4 -42 -8 -64 -9 -35 -1 -38 -3 -34 -26 4 -17 1
-25 -8 -25 -8 0 -14 -10 -14 -24 0 -21 9 -28 57 -46 32 -12 68 -19 80 -17 13
2 23 1 23 -3 0 -12 129 -30 173 -26 72 8 94 17 108 43 11 21 11 27 2 30 -7 3
-13 17 -13 33 0 34 -15 40 -90 36 -36 -2 -63 2 -77 11 -12 8 -26 12 -31 10 -4
-3 -14 -2 -22 3 -8 5 -22 5 -32 -1 -14 -7 -18 -6 -18 6 0 16 -3 17 -40 5z
m110 -61 c0 -5 -4 -9 -10 -9 -5 0 -10 7 -10 16 0 8 5 12 10 9 6 -3 10 -10 10
-16z"/>
<path d="M8353 12717 c-15 -18 -15 -20 -1 -9 10 8 26 11 38 7 11 -3 20 -2 20
3 0 21 -39 19 -57 -1z"/>
<path d="M19590 12730 c0 -5 4 -10 9 -10 6 0 13 5 16 10 3 6 -1 10 -9 10 -9 0
-16 -4 -16 -10z"/>
<path d="M2038 12713 c7 -3 16 -2 19 1 4 3 -2 6 -13 5 -11 0 -14 -3 -6 -6z"/>
<path d="M8300 12700 c0 -5 -7 -7 -15 -4 -8 4 -15 2 -15 -4 0 -5 -13 -12 -29
-15 -36 -8 -84 -48 -73 -63 10 -16 52 -28 52 -15 0 6 -6 11 -14 11 -8 0 -18 6
-22 13 -4 6 -4 9 1 5 4 -4 19 4 32 18 20 22 29 19 24 -8 0 -5 8 -8 19 -8 14 0
20 6 18 17 -2 11 8 22 25 31 15 7 25 17 22 23 -8 12 -25 12 -25 -1z"/>
<path d="M12865 12660 c3 -5 8 -10 11 -10 2 0 4 5 4 10 0 6 -5 10 -11 10 -5 0
-7 -4 -4 -10z"/>
<path d="M19420 12641 c0 -13 48 -20 53 -7 3 7 -7 13 -24 14 -16 1 -29 -2 -29
-7z"/>
<path d="M11375 12620 c3 -5 8 -10 11 -10 2 0 4 5 4 10 0 6 -5 10 -11 10 -5 0
-7 -4 -4 -10z"/>
<path d="M11304 12587 c-19 -41 -19 -41 15 -52 21 -6 23 -5 18 14 -3 13 0 21
7 21 6 0 13 12 14 28 1 21 0 24 -8 12 -9 -13 -11 -13 -19 -1 -7 12 -13 7 -27
-22z"/>
<path d="M2038 12581 c-2 -17 -1 -28 4 -25 4 3 8 12 8 20 0 8 5 14 11 14 5 0
7 5 4 10 -11 18 -23 10 -27 -19z"/>
<path d="M8073 12594 c-18 -8 -33 -17 -33 -22 1 -17 17 -31 37 -29 12 0 20 4
17 8 -2 4 1 11 7 15 6 3 15 0 20 -7 8 -14 24 -5 24 14 1 14 -20 37 -32 36 -4
0 -23 -7 -40 -15z"/>
<path d="M19246 12566 c-38 -33 -41 -56 -8 -56 18 0 65 47 75 75 11 27 -27 17
-67 -19z"/>
<path d="M8010 12550 c0 -5 7 -10 15 -10 8 0 15 5 15 10 0 6 -7 10 -15 10 -8
0 -15 -4 -15 -10z"/>
<path d="M13325 12550 c3 -5 8 -10 11 -10 2 0 4 5 4 10 0 6 -5 10 -11 10 -5 0
-7 -4 -4 -10z"/>
<path d="M7992 12529 c2 -8 -4 -13 -13 -11 -9 1 -20 -5 -23 -15 -6 -15 -8 -15
-16 -3 -8 12 -13 12 -36 -6 -51 -38 -41 -50 19 -25 16 6 32 9 36 6 5 -2 17 5
29 15 12 11 26 20 32 20 5 0 10 5 10 12 0 6 -3 8 -7 5 -3 -4 -12 -2 -20 5 -11
9 -13 8 -11 -3z"/>
<path d="M11270 12495 c0 -8 5 -15 10 -15 6 0 10 7 10 15 0 8 -4 15 -10 15 -5
0 -10 -7 -10 -15z"/>
<path d="M2020 12480 c0 -5 12 -10 26 -10 14 0 23 4 19 10 -3 6 -15 10 -26 10
-10 0 -19 -4 -19 -10z"/>
<path d="M13158 12469 c-10 -5 -18 -16 -18 -24 0 -9 -7 -11 -21 -8 -19 5 -21
3 -16 -19 7 -28 -13 -44 -31 -26 -17 17 -45 1 -39 -23 4 -15 0 -23 -13 -26
-10 -3 -21 -16 -24 -29 -4 -14 -17 -29 -29 -33 -29 -11 -44 -29 -52 -64 -5
-17 -16 -29 -31 -33 -13 -3 -24 -9 -24 -13 0 -3 -11 -19 -25 -35 -14 -16 -25
-33 -25 -38 0 -5 -15 -15 -34 -23 -19 -8 -46 -25 -59 -37 -14 -13 -51 -45 -83
-73 -76 -66 -154 -144 -154 -154 0 -5 -9 -11 -20 -14 -11 -3 -20 -13 -20 -24
0 -10 -10 -23 -22 -28 -14 -6 -24 -21 -26 -37 -4 -30 -26 -38 -36 -13 -3 8
-13 15 -22 15 -13 0 -15 -6 -10 -31 6 -31 6 -31 -18 -15 -29 19 -56 12 -56
-15 0 -21 -26 -26 -32 -7 -3 8 -15 6 -39 -9 -24 -14 -45 -19 -75 -16 -24 3
-45 0 -48 -6 -4 -6 -16 -11 -27 -11 -49 0 -147 -74 -168 -127 -8 -20 -20 -33
-32 -33 -9 0 -27 -13 -38 -28 l-20 -29 22 -21 c27 -27 12 -51 -21 -33 -23 12
-52 5 -52 -13 0 -7 -18 -32 -41 -56 -22 -23 -44 -53 -49 -66 -6 -14 -18 -24
-29 -24 -11 0 -40 -16 -65 -35 -40 -30 -107 -50 -119 -35 -20 26 -47 82 -47
99 0 53 -115 231 -149 231 -15 0 -35 15 -104 75 -13 12 -22 13 -37 5 -17 -9
-25 -6 -45 16 -14 15 -28 24 -32 20 -4 -4 -1 -11 7 -16 8 -5 11 -13 6 -17 -4
-4 -15 2 -23 15 -17 24 -43 30 -43 10 0 -7 -8 -22 -16 -33 -15 -19 -16 -18 -9
13 6 29 5 32 -18 32 -39 0 -57 -10 -57 -32 0 -12 -4 -16 -11 -12 -7 4 -32 8
-57 9 -36 1 -46 -2 -49 -16 -4 -14 -12 -17 -37 -12 -17 3 -32 7 -34 9 -2 1
-18 -4 -36 -11 -18 -8 -43 -11 -55 -8 l-21 5 24 33 c17 21 21 36 15 42 -14 14
-53 4 -67 -17 -10 -17 -9 -18 16 -4 32 16 46 -1 17 -22 -10 -7 -23 -24 -29
-36 -6 -13 -25 -27 -42 -33 -17 -5 -38 -18 -48 -27 -10 -10 -28 -21 -42 -24
-13 -3 -24 -10 -24 -15 0 -5 -7 -9 -15 -9 -9 0 -27 -11 -41 -25 -18 -18 -32
-23 -48 -19 -20 5 -25 0 -34 -25 -11 -33 -30 -38 -63 -20 -13 7 -25 7 -32 1
-7 -5 -28 -12 -47 -15 -32 -4 -75 -18 -125 -38 -11 -5 -38 -15 -60 -23 -22 -7
-62 -28 -90 -45 -27 -17 -55 -31 -62 -31 -7 0 -21 -4 -31 -9 -74 -37 -155 -71
-167 -71 -8 0 -15 -4 -15 -10 0 -5 -7 -10 -15 -10 -8 0 -25 -11 -39 -25 -14
-14 -33 -25 -43 -25 -10 0 -27 -6 -38 -14 -11 -7 -46 -21 -77 -31 -32 -10 -72
-28 -90 -41 -17 -13 -37 -24 -44 -24 -6 0 -14 -6 -17 -14 -3 -8 -27 -17 -54
-20 -91 -12 -118 -16 -167 -25 -27 -4 -57 -6 -67 -4 -11 3 -23 -3 -31 -16 -7
-12 -18 -21 -25 -21 -21 0 -53 57 -58 106 -3 27 -9 58 -14 69 -5 11 -13 43
-17 70 -7 41 -13 51 -31 53 -26 4 -29 12 -11 30 9 9 7 18 -9 40 -11 15 -24 42
-27 59 -4 17 -18 39 -32 47 -20 14 -22 19 -13 35 10 14 7 24 -11 49 -13 18
-29 32 -36 32 -21 0 -56 42 -44 54 15 15 12 52 -5 66 -8 7 -15 17 -15 23 0 6
-7 17 -15 26 -42 46 -75 91 -85 115 -7 19 -15 26 -25 22 -10 -4 -19 2 -24 17
-11 28 -37 51 -50 43 -5 -3 -7 3 -4 14 4 14 0 20 -11 20 -9 0 -16 4 -16 9 0 5
-17 16 -37 24 -21 8 -55 31 -76 50 -39 35 -98 60 -121 51 -7 -3 -19 2 -26 11
-7 8 -18 15 -24 15 -13 0 -158 55 -203 78 -26 13 -36 14 -58 4 -29 -13 -55 -2
-55 23 0 24 -50 45 -127 54 -46 5 -88 4 -103 -1 -17 -6 -52 -4 -112 8 l-87 18
-25 -23 c-18 -17 -26 -19 -32 -10 -4 8 1 18 14 27 21 14 33 50 13 37 -5 -3
-12 -1 -16 5 -3 5 1 10 9 10 9 0 16 4 16 10 0 12 -73 5 -78 -8 -2 -6 -10 -8
-18 -5 -8 3 -35 0 -59 -6 -25 -6 -65 -16 -90 -22 -35 -9 -48 -9 -60 1 -8 7
-22 9 -31 6 -9 -3 -44 1 -77 10 -60 16 -77 18 -163 22 -25 1 -47 9 -60 22 -10
11 -30 31 -44 45 -14 14 -32 24 -40 23 -8 -1 -32 4 -54 11 -21 7 -53 11 -71 8
-18 -3 -37 -1 -43 5 -6 6 -12 6 -16 -1 -4 -6 -16 -11 -27 -11 -10 0 -19 -4
-19 -10 0 -5 -5 -10 -10 -10 -6 0 -8 11 -4 25 7 27 -4 31 -70 26 -18 -2 -33 4
-42 17 -7 11 -30 22 -51 26 -21 3 -53 9 -72 12 -22 4 -36 2 -41 -6 -4 -7 -16
-9 -29 -5 -16 5 -20 12 -15 31 5 18 2 24 -10 24 -9 0 -19 -6 -22 -14 -3 -9
-13 -12 -22 -9 -10 3 -8 -1 6 -11 27 -21 29 -40 2 -33 -11 3 -20 1 -20 -5 0
-5 9 -12 20 -15 21 -6 24 -12 14 -37 -3 -9 -10 -13 -15 -10 -5 3 -9 1 -9 -4 0
-5 30 -13 68 -17 37 -4 76 -12 87 -19 11 -6 31 -11 45 -10 14 1 31 -3 37 -8 7
-6 22 -8 33 -5 34 9 165 -27 168 -46 2 -10 8 -17 13 -17 5 0 14 -11 20 -24 6
-13 19 -27 28 -29 9 -3 35 -13 58 -21 22 -8 52 -17 65 -20 12 -2 40 -11 60
-20 21 -9 46 -16 56 -16 10 0 27 -6 37 -14 18 -13 18 -15 -9 -50 -15 -20 -32
-33 -38 -30 -7 4 -8 2 -4 -4 10 -17 66 6 66 28 0 22 30 35 41 18 7 -10 12 -11
29 0 11 6 41 12 67 13 27 0 57 4 68 8 11 5 28 5 37 0 10 -6 19 -5 23 1 3 6 30
7 64 4 39 -5 61 -3 65 5 5 8 13 8 29 0 16 -9 22 -9 25 0 5 15 31 14 64 -3 39
-21 88 -30 88 -17 0 16 19 13 67 -10 30 -15 47 -18 56 -11 7 6 29 7 55 2 24
-4 52 -5 63 -3 10 3 26 0 34 -7 8 -6 18 -9 23 -6 5 3 20 -3 32 -14 14 -12 38
-20 61 -20 22 0 41 -6 46 -14 4 -8 19 -16 33 -18 14 -1 30 -9 36 -17 6 -8 20
-12 33 -8 11 3 21 1 21 -4 0 -8 71 -49 85 -49 3 0 5 9 5 21 0 29 24 18 28 -13
2 -19 14 -30 52 -46 27 -12 52 -27 57 -34 14 -23 58 -36 105 -31 41 5 48 3 59
-18 8 -13 14 -31 14 -39 0 -8 12 -20 27 -27 14 -7 35 -29 47 -48 11 -19 25
-35 32 -35 6 0 8 -7 5 -16 -7 -18 34 -102 63 -128 12 -11 21 -27 21 -36 0 -9
16 -30 35 -46 19 -16 35 -37 35 -46 0 -9 5 -20 10 -23 6 -3 10 -19 10 -34 0
-16 7 -34 15 -41 8 -7 15 -22 15 -34 0 -12 9 -27 20 -34 11 -7 20 -20 20 -29
0 -9 8 -25 17 -35 10 -11 18 -38 19 -61 3 -55 22 -139 35 -152 7 -7 23 -3 52
14 36 21 40 21 25 4 -10 -11 -18 -27 -18 -36 0 -9 -4 -17 -10 -17 -5 0 -10 -7
-10 -15 0 -10 10 -15 30 -15 18 0 30 -5 30 -13 0 -19 52 -65 57 -51 2 7 27 9
69 7 60 -4 66 -3 71 16 6 24 31 28 39 6 9 -22 21 -18 27 7 6 21 7 21 26 4 20
-18 22 -18 70 7 27 15 77 31 111 36 34 6 72 16 84 24 11 8 34 17 49 21 16 4
38 16 50 26 11 11 33 20 47 20 17 0 33 10 47 29 17 22 32 29 67 33 25 3 53 12
62 19 9 7 26 14 37 16 35 5 99 35 137 65 19 15 44 27 55 27 11 -1 38 6 60 15
22 8 48 15 58 16 11 0 31 8 45 18 43 28 130 55 158 48 13 -4 22 -11 19 -16 -3
-5 3 -13 12 -19 15 -8 16 -12 4 -23 -11 -10 -14 -10 -18 0 -11 29 -63 5 -63
-30 0 -10 -6 -18 -13 -18 -18 0 -77 -83 -77 -109 0 -12 -6 -21 -15 -21 -17 0
-34 -29 -28 -47 3 -7 -2 -13 -11 -13 -20 0 -38 -33 -30 -57 5 -16 4 -16 -10 1
-16 20 -16 20 -16 0 0 -11 6 -26 13 -33 10 -11 8 -11 -10 -2 -18 9 -24 8 -36
-10 -19 -27 -11 -54 16 -57 15 -1 30 10 46 33 13 19 27 35 32 35 5 0 9 7 9 15
0 8 5 15 10 15 6 0 10 6 10 13 0 18 60 101 67 93 6 -6 43 37 43 51 0 5 14 22
30 38 17 16 30 35 30 42 0 7 5 13 10 13 6 0 10 5 10 11 0 6 6 17 13 24 28 33
37 45 37 53 0 18 83 90 146 127 36 21 68 43 72 49 11 18 59 39 75 33 24 -9
151 31 170 54 11 14 24 19 38 16 12 -3 31 -1 43 5 47 24 51 25 64 9 12 -15 13
-14 8 1 -6 22 13 35 25 17 11 -18 103 -38 123 -27 20 11 36 2 36 -21 0 -10 11
-23 24 -31 30 -16 89 -96 81 -110 -3 -5 1 -10 9 -10 10 0 16 -9 16 -21 0 -11
13 -46 29 -77 16 -31 37 -75 46 -97 20 -49 75 -88 111 -79 15 4 24 2 24 -6 0
-8 13 -10 43 -6 23 3 62 7 86 9 39 3 50 10 92 58 27 30 59 68 71 85 12 17 34
40 50 50 15 10 54 53 86 94 31 41 83 101 116 132 50 49 63 57 90 54 36 -4 46
-29 21 -56 -19 -21 -37 -80 -39 -130 -1 -27 4 -37 22 -46 13 -6 29 -17 35 -23
6 -6 24 -11 39 -11 33 0 38 24 8 42 -26 16 -25 24 1 31 17 5 20 11 16 29 -4
13 0 36 8 52 19 37 19 39 -4 26 -28 -15 -46 -13 -33 3 7 8 7 18 2 27 -11 17 5
50 25 50 20 0 29 41 20 96 -5 33 -3 44 5 39 6 -4 17 -1 25 5 17 14 45 7 45
-11 0 -7 -10 -9 -25 -7 -17 4 -25 1 -25 -8 0 -21 44 -17 73 6 14 11 28 20 32
20 36 0 153 81 147 102 -1 5 5 7 15 4 12 -4 31 6 56 29 21 19 43 35 48 35 21
0 109 72 109 89 0 6 5 11 10 11 6 0 15 10 21 23 6 12 33 33 61 47 27 13 54 32
59 42 5 10 23 25 39 33 17 9 29 19 27 24 -1 5 9 19 23 32 14 13 34 42 45 64
11 22 26 46 33 53 6 7 12 22 12 33 0 14 7 19 26 19 14 0 23 4 19 10 -3 6 0 13
8 16 9 3 18 16 21 29 4 17 11 22 26 18 22 -6 29 22 8 30 -8 3 -6 7 7 12 38 12
50 22 54 41 2 10 7 21 11 24 4 3 15 23 24 44 12 29 13 42 5 52 -13 16 -37 17
-61 3z m-7178 -179 c0 -5 -4 -10 -10 -10 -5 0 -10 5 -10 10 0 6 5 10 10 10 6
0 10 -4 10 -10z m6990 -79 c0 -11 -26 -22 -34 -14 -12 12 -5 23 14 23 11 0 20
-4 20 -9z m-5310 -281 c0 -5 -7 -10 -15 -10 -8 0 -15 5 -15 10 0 6 7 10 15 10
8 0 15 -4 15 -10z m3010 -550 c0 -5 -7 -10 -16 -10 -8 0 -12 5 -9 10 3 6 10
10 16 10 5 0 9 -4 9 -10z m-1500 -620 c0 -5 -4 -10 -10 -10 -5 0 -10 5 -10 10
0 6 5 10 10 10 6 0 10 -4 10 -10z m-50 -25 c0 -8 -4 -15 -10 -15 -5 0 -10 7
-10 15 0 8 5 15 10 15 6 0 10 -7 10 -15z m-230 -15 c0 -5 -4 -10 -10 -10 -5 0
-10 5 -10 10 0 6 5 10 10 10 6 0 10 -4 10 -10z m60 -4 c0 -8 -7 -16 -15 -20
-15 -5 -21 14 -8 27 11 12 23 8 23 -7z"/>
<path d="M9750 12444 c0 -21 4 -25 20 -21 12 3 20 0 20 -8 0 -15 -44 -29 -83
-26 l-29 3 23 -23 c18 -18 25 -20 40 -10 26 16 34 14 18 -5 -11 -14 -10 -18 6
-30 10 -8 30 -14 44 -15 14 -1 49 -3 76 -4 84 -6 160 -4 163 4 1 4 16 5 32 3
22 -3 30 0 30 11 0 8 9 17 20 20 44 12 43 90 -1 94 -13 1 -46 5 -73 9 -33 5
-50 3 -55 -5 -6 -9 -14 -9 -35 0 -21 10 -32 10 -46 1 -14 -9 -21 -8 -30 3 -15
18 -47 20 -52 3 -3 -8 -14 -7 -38 5 -44 23 -50 22 -50 -9z"/>
<path d="M2048 12439 c-20 -11 -25 -34 -5 -24 6 4 3 0 -7 -9 -11 -9 -20 -29
-21 -46 -2 -34 2 -36 31 -12 15 13 20 29 20 60 0 23 0 42 -1 42 0 0 -8 -5 -17
-11z"/>
<path d="M7786 12425 c-16 -12 -17 -18 -8 -27 9 -9 12 -9 12 1 0 7 4 10 8 7 4
-2 8 4 8 15 0 10 0 19 -1 19 0 0 -9 -7 -19 -15z"/>
<path d="M5758 12423 c7 -3 16 -2 19 1 4 3 -2 6 -13 5 -11 0 -14 -3 -6 -6z"/>
<path d="M18896 12382 c-24 -28 -20 -42 12 -38 82 11 96 34 31 49 -18 5 -31 1
-43 -11z"/>
<path d="M18835 12351 c-4 -13 -13 -17 -29 -14 -24 5 -49 -18 -28 -25 7 -2 12
-9 12 -15 0 -6 -11 0 -24 12 -17 16 -26 19 -31 11 -11 -17 7 -30 50 -35 37 -5
70 9 59 26 -3 5 4 9 15 9 26 0 27 11 2 32 -19 16 -20 16 -26 -1z"/>
<path d="M2043 12295 c-4 -11 0 -21 11 -27 9 -5 13 -14 10 -20 -4 -6 -3 -8 3
-5 14 9 11 59 -4 65 -7 2 -16 -4 -20 -13z"/>
<path d="M7290 12229 c0 -5 5 -7 10 -4 6 3 10 8 10 11 0 2 -4 4 -10 4 -5 0
-10 -5 -10 -11z"/>
<path d="M18685 12230 c3 -5 8 -10 11 -10 2 0 4 5 4 10 0 6 -5 10 -11 10 -5 0
-7 -4 -4 -10z"/>
<path d="M11075 12220 c3 -5 8 -10 11 -10 2 0 4 5 4 10 0 6 -5 10 -11 10 -5 0
-7 -4 -4 -10z"/>
<path d="M11040 12178 c0 -19 2 -20 10 -8 13 19 13 30 0 30 -5 0 -10 -10 -10
-22z"/>
<path d="M2042 12170 c0 -14 2 -19 5 -12 2 6 2 18 0 25 -3 6 -5 1 -5 -13z"/>
<path d="M18482 12165 c-12 -14 -22 -30 -22 -36 0 -5 -5 -7 -12 -3 -7 4 -8 3
-4 -4 10 -17 36 -15 36 3 0 9 8 14 21 12 12 -1 24 4 26 11 3 8 -1 10 -12 5
-14 -5 -16 -2 -10 15 8 28 3 28 -23 -3z"/>
<path d="M2060 12149 c0 -5 5 -7 10 -4 6 3 10 8 10 11 0 2 -4 4 -10 4 -5 0
-10 -5 -10 -11z"/>
<path d="M10995 12139 c4 -11 2 -19 -4 -19 -6 0 -11 -7 -11 -15 0 -20 20 -19
36 3 20 25 17 48 -6 49 -16 1 -20 -2 -15 -18z"/>
<path d="M18370 12090 c0 -5 4 -10 9 -10 6 0 13 5 16 10 3 6 -1 10 -9 10 -9 0
-16 -4 -16 -10z"/>
<path d="M10924 12065 c-17 -13 -17 -14 -2 -15 9 0 20 5 23 11 11 17 0 20 -21
4z"/>
<path d="M9074 12042 c-7 -11 -16 -13 -30 -7 -26 11 -55 6 -76 -12 -19 -17
-19 -76 -1 -94 7 -7 43 -11 82 -11 39 1 71 -3 71 -9 0 -15 30 -10 36 6 4 10
14 13 30 9 19 -5 23 -3 18 10 -7 18 20 23 31 6 10 -17 33 -11 40 10 13 40 45
17 45 -31 0 -13 7 -19 24 -19 40 0 56 11 56 36 0 13 5 24 10 24 20 0 9 31 -15
42 -20 9 -28 8 -44 -6 -18 -16 -20 -15 -44 14 -22 26 -31 29 -62 25 -19 -2
-40 -7 -46 -10 -5 -4 -16 -2 -23 4 -7 6 -21 9 -30 5 -9 -3 -27 1 -39 9 -21 14
-24 13 -33 -1z m46 -42 c0 -5 -4 -10 -10 -10 -5 0 -10 5 -10 10 0 6 5 10 10
10 6 0 10 -4 10 -10z"/>
<path d="M18273 12040 c-6 -23 -19 -26 -26 -7 -4 8 -8 9 -14 1 -4 -6 -16 -15
-27 -21 -17 -9 -16 -11 7 -17 16 -4 24 -11 21 -19 -3 -8 2 -14 11 -14 8 0 15
6 15 14 0 7 3 12 8 11 19 -6 52 24 52 47 0 32 -39 36 -47 5z"/>
<path d="M10917 12023 c-15 -8 -33 -23 -40 -34 -6 -10 -17 -19 -24 -19 -7 0
-13 -7 -13 -15 0 -8 -4 -15 -9 -15 -10 0 -24 -38 -21 -58 2 -21 -31 -53 -49
-48 -9 3 -23 -5 -32 -17 -16 -22 -16 -23 7 -25 13 -1 24 3 24 8 0 6 8 10 19
10 10 0 33 14 50 32 29 30 30 33 14 50 -9 10 -13 21 -10 24 4 4 9 -1 13 -10 8
-21 26 -21 23 2 -1 9 4 31 12 49 10 26 17 31 35 27 18 -5 22 -1 26 25 3 17 4
31 4 30 -1 -1 -14 -8 -29 -16z"/>
<path d="M2110 11947 c0 -9 0 -20 -1 -24 0 -4 4 -9 9 -11 5 -1 8 6 7 18 -2 24
-15 40 -15 17z"/>
<path d="M18070 11931 c0 -5 6 -12 13 -15 6 -4 3 -5 -9 -2 -13 2 -21 -2 -21
-10 0 -17 3 -17 28 -4 23 13 26 40 4 40 -8 0 -15 -4 -15 -9z"/>
<path d="M17912 11838 c-14 -14 -16 -68 -3 -68 6 0 13 5 16 10 3 6 15 10 26
10 10 0 19 7 19 15 0 8 -7 15 -15 15 -7 0 -18 7 -22 15 -7 12 -12 12 -21 3z"/>
<path d="M17840 11784 c0 -8 5 -12 10 -9 6 3 10 10 10 16 0 5 -4 9 -10 9 -5 0
-10 -7 -10 -16z"/>
<path d="M6210 11766 c0 -9 5 -16 10 -16 6 0 10 4 10 9 0 6 -4 13 -10 16 -5 3
-10 -1 -10 -9z"/>
<path d="M10677 11743 c-6 -16 -14 -30 -18 -33 -3 -3 -8 -13 -12 -22 -7 -20
16 -31 33 -15 10 9 14 9 17 -1 7 -18 43 14 43 38 0 9 5 21 11 27 8 8 8 13 0
17 -6 4 -11 2 -11 -5 0 -8 -6 -6 -18 4 -25 23 -30 22 -45 -10z"/>
<path d="M17790 11760 c0 -5 9 -10 20 -10 11 0 20 5 20 10 0 6 -9 10 -20 10
-11 0 -20 -4 -20 -10z"/>
<path d="M6134 11745 c-4 -8 -10 -15 -15 -15 -15 0 -45 -36 -41 -49 3 -8 -5
-11 -19 -10 -37 3 -59 0 -59 -10 0 -9 28 -7 80 4 33 7 70 -14 70 -40 0 -7 9
-15 20 -18 14 -3 20 -14 20 -31 0 -15 6 -29 13 -32 8 -3 12 -16 9 -34 -3 -21
1 -32 16 -41 16 -10 19 -20 15 -49 -4 -25 0 -46 12 -63 9 -14 15 -36 13 -49
-3 -19 2 -23 30 -26 27 -3 32 0 32 17 0 11 9 25 20 31 28 15 27 97 -2 170 -54
137 -61 148 -73 110 -3 -11 -13 -20 -21 -20 -18 0 -18 15 1 34 19 18 19 35 0
60 -8 11 -15 27 -15 35 0 10 -16 21 -40 29 -51 16 -59 15 -66 -3z m144 -206
c-2 -6 -8 -10 -13 -10 -5 0 -11 4 -13 10 -2 6 4 11 13 11 9 0 15 -5 13 -11z
m22 -169 c0 -5 -4 -10 -10 -10 -5 0 -10 5 -10 10 0 6 5 10 10 10 6 0 10 -4 10
-10z"/>
<path d="M17676 11685 c4 -8 12 -15 20 -15 20 0 17 7 -6 20 -16 9 -18 8 -14
-5z"/>
<path d="M17471 11587 c-6 -6 -11 -16 -11 -23 0 -15 -23 -24 -61 -24 -16 0
-29 -4 -29 -10 0 -5 7 -10 16 -10 9 0 14 -6 11 -12 -3 -12 -11 -14 -61 -17
-15 -1 -16 -4 -7 -15 16 -19 71 -31 80 -18 3 5 25 19 49 31 23 12 47 32 52 45
4 13 16 26 26 30 13 5 14 10 6 18 -15 15 -58 18 -71 5z"/>
<path d="M5643 11523 c-12 -2 -26 -10 -32 -17 -9 -10 -4 -13 19 -14 20 0 33 6
40 19 6 10 7 18 3 18 -4 -1 -18 -4 -30 -6z"/>
<path d="M5510 11460 c0 -5 5 -10 10 -10 6 0 10 5 10 10 0 6 -4 10 -10 10 -5
0 -10 -4 -10 -10z"/>
<path d="M17236 11424 c5 -20 4 -25 -5 -19 -8 4 -14 -1 -18 -14 -6 -24 -33
-29 -33 -5 0 9 9 18 20 21 18 5 29 23 14 23 -7 0 -48 -22 -54 -29 -3 -3 -18
-13 -35 -21 -16 -8 -36 -21 -43 -27 -7 -7 -20 -13 -27 -13 -12 0 -35 -29 -35
-44 0 -3 10 -10 21 -17 20 -10 21 -9 16 12 l-6 24 16 -22 c19 -28 33 -29 54
-5 33 36 69 61 82 56 7 -2 25 9 40 26 15 16 35 30 44 30 14 0 13 3 -5 16 -12
8 -20 20 -17 25 4 5 -3 9 -15 9 -17 0 -19 -4 -14 -26z"/>
<path d="M17327 11443 c-4 -3 -7 -13 -7 -22 0 -10 3 -12 8 -5 4 6 15 10 25 8
9 -1 17 4 17 12 0 14 -31 20 -43 7z"/>
<path d="M5024 11269 c-3 -6 -1 -16 5 -22 8 -8 11 -8 11 1 0 7 6 12 14 12 25
0 26 16 1 18 -13 1 -27 -3 -31 -9z"/>
<path d="M16855 11191 c7 -22 -14 -40 -25 -21 -11 19 -54 5 -94 -30 -18 -17
-41 -30 -50 -30 -9 0 -39 -20 -65 -45 -26 -25 -56 -45 -65 -45 -10 0 -16 -6
-13 -12 2 -7 13 -13 25 -13 34 -1 31 -20 -3 -23 -16 -2 -37 -6 -45 -9 -8 -3
-21 -5 -27 -4 -7 1 -13 -5 -13 -14 0 -9 6 -15 13 -12 6 2 17 -3 23 -11 10 -13
15 -13 42 3 17 10 36 29 42 41 7 12 18 20 24 18 16 -6 56 29 56 49 0 14 5 15
26 7 34 -13 90 24 115 77 9 21 18 32 18 24 1 -8 9 -5 22 10 11 13 18 18 14 12
-4 -8 0 -13 9 -13 10 0 13 6 10 15 -4 8 -2 15 4 15 6 0 12 -5 14 -12 3 -8 6
-9 11 -1 3 5 0 18 -7 29 -12 15 -16 16 -30 5 -11 -9 -16 -10 -16 -2 0 6 -5 11
-11 11 -6 0 -8 -8 -4 -19z"/>
<path d="M12019 11118 c-2 -68 -3 -77 -13 -111 -5 -18 -4 -37 3 -50 7 -14 8
-32 3 -52 -6 -18 -5 -55 1 -92 8 -49 8 -68 -3 -87 -12 -24 -12 -41 5 -164 2
-13 9 -30 16 -38 8 -10 10 -36 6 -85 -7 -81 -2 -99 24 -99 19 0 25 -11 12 -23
-3 -4 -13 -1 -21 6 -13 10 -14 8 -8 -18 4 -16 19 -40 34 -52 20 -17 23 -23 11
-23 -57 0 -9 -246 54 -282 9 -5 13 -16 10 -28 -3 -11 1 -28 9 -38 8 -9 19 -28
25 -42 6 -14 24 -41 41 -60 75 -87 91 -107 105 -142 9 -21 32 -53 51 -73 20
-20 42 -50 50 -68 13 -29 90 -116 105 -118 3 0 16 -2 29 -3 12 -2 33 -13 47
-26 l25 -23 -23 -11 c-34 -17 -27 -32 31 -70 30 -19 73 -53 98 -76 24 -22 49
-38 54 -35 6 4 28 -12 49 -34 22 -23 48 -41 58 -41 10 0 36 -9 58 -20 46 -23
49 -24 39 -9 -4 7 -1 10 7 7 8 -3 13 -12 11 -22 -4 -20 6 -20 29 0 21 19 42 9
34 -16 -4 -13 4 -26 28 -44 19 -14 41 -26 49 -26 17 0 78 -72 78 -92 0 -16
118 -138 134 -139 48 -3 74 -12 107 -38 21 -17 47 -31 59 -31 11 0 23 -7 26
-15 9 -22 34 -18 58 8 12 13 31 29 41 34 18 10 15 15 -35 62 -30 28 -61 51
-68 51 -10 0 -13 8 -9 26 3 16 0 28 -9 31 -17 6 -19 35 -1 31 19 -3 87 22 87
33 0 6 -4 7 -10 4 -5 -3 -10 1 -10 9 0 9 8 16 19 16 24 0 45 25 35 42 -4 7 -4
10 1 6 4 -4 14 -3 21 2 8 8 16 6 27 -4 16 -16 27 -11 27 11 0 7 -7 13 -15 13
-8 0 -15 4 -15 8 0 20 -42 9 -52 -14 -9 -18 -14 -21 -20 -12 -6 9 -7 5 -3 -9
5 -19 2 -23 -15 -23 -11 0 -23 -7 -26 -15 -4 -8 -10 -15 -16 -15 -5 0 -6 5 -2
11 4 7 2 10 -5 8 -7 -3 -12 -9 -12 -14 0 -13 -39 -34 -64 -35 -38 0 -94 21
-125 47 -27 23 -34 24 -55 13 -30 -16 -49 -6 -33 19 9 15 8 22 -5 36 -9 9 -17
20 -17 24 0 4 -16 13 -36 20 -20 7 -50 28 -65 46 -18 21 -36 31 -47 29 -11 -3
-21 3 -27 18 -7 15 -20 24 -40 26 -16 2 -37 10 -46 18 -8 7 -30 17 -47 20 -18
4 -34 14 -37 25 -4 11 -10 19 -15 19 -5 0 -34 25 -64 55 -44 44 -55 52 -59 38
-4 -16 -6 -16 -12 3 -3 11 -29 34 -57 50 -28 16 -54 36 -58 44 -5 8 -19 37
-32 63 -12 26 -44 71 -70 100 -26 29 -56 61 -66 72 -9 11 -26 39 -37 62 -11
23 -30 47 -42 52 -13 6 -23 19 -23 30 0 11 -11 31 -25 45 -14 14 -25 35 -25
46 0 13 -8 24 -20 27 -11 3 -20 14 -20 24 0 11 -7 19 -15 19 -12 0 -15 9 -13
35 1 24 -4 39 -15 48 -10 7 -20 28 -23 47 -3 19 -9 40 -14 45 -10 12 -19 83
-24 198 -3 48 -8 93 -13 100 -4 6 -8 36 -8 65 0 39 -5 57 -17 66 -11 8 -15 20
-11 35 5 20 3 22 -16 16 -21 -6 -30 8 -11 20 6 3 10 16 10 29 0 12 3 26 7 30
6 6 11 48 16 131 1 17 5 35 9 40 8 12 3 124 -6 133 -3 3 -6 16 -6 29 0 14 -6
23 -15 23 -21 0 -19 13 5 28 30 18 24 30 -19 42 -21 5 -42 17 -45 25 -3 8 -15
15 -26 15 -17 0 -20 -7 -21 -52z m941 -1957 c0 -6 -4 -13 -10 -16 -5 -3 -10 1
-10 9 0 9 5 16 10 16 6 0 10 -4 10 -9z m-30 -41 c0 -13 -28 -25 -38 -16 -3 4
0 11 8 16 20 13 30 12 30 0z"/>
<path d="M4576 11132 c-3 -6 -1 -14 5 -17 15 -10 25 3 12 16 -7 7 -13 7 -17 1z"/>
<path d="M4620 11100 c-9 -6 -10 -10 -3 -10 6 0 15 5 18 10 8 12 4 12 -15 0z"/>
<path d="M4484 11089 c-6 -10 12 -28 28 -29 16 0 15 17 -2 28 -14 8 -21 8 -26
1z"/>
<path d="M4381 11081 c-19 -12 -5 -50 17 -46 9 2 20 4 24 4 12 2 2 33 -13 41
-8 5 -21 5 -28 1z"/>
<path d="M4239 11044 c-6 -8 -19 -12 -29 -9 -9 3 -24 -3 -35 -15 -20 -22 -13
-39 8 -21 8 6 22 9 31 5 11 -4 16 -1 16 10 0 18 17 20 54 6 18 -6 26 -6 26 1
0 7 12 8 31 4 29 -7 30 -6 20 14 -14 24 -39 28 -47 6 -4 -8 -15 -15 -26 -15
-10 0 -17 4 -14 9 10 16 -22 20 -35 5z"/>
<path d="M4065 10999 c-11 -17 1 -21 15 -4 8 9 8 15 2 15 -6 0 -14 -5 -17 -11z"/>
<path d="M4006 10985 c-11 -8 -17 -17 -14 -21 8 -8 48 14 48 26 0 14 -12 12
-34 -5z"/>
<path d="M5777 10983 c-4 -3 -7 -11 -7 -17 0 -6 5 -5 12 2 6 6 9 14 7 17 -3 3
-9 2 -12 -2z"/>
<path d="M16308 10836 c-21 -16 -6 -36 28 -36 17 0 20 5 16 25 -5 28 -18 31
-44 11z"/>
<path d="M16273 10763 c9 -9 19 -14 23 -11 10 10 -6 28 -24 28 -15 0 -15 -1 1
-17z"/>
<path d="M16211 10756 c-10 -12 -8 -17 10 -26 17 -10 24 -9 37 4 15 15 15 16
-1 16 -9 0 -17 5 -17 10 0 15 -16 12 -29 -4z"/>
<path d="M16104 10730 c-63 -33 -124 -88 -118 -105 9 -23 66 -27 94 -7 14 11
35 22 47 26 34 11 48 33 33 51 -10 13 -10 19 4 33 36 40 13 41 -60 2z"/>
<path d="M16185 10711 c-6 -11 9 -23 19 -14 9 9 7 23 -3 23 -6 0 -12 -4 -16
-9z"/>
<path d="M9875 10630 c-6 -25 -11 -30 -27 -24 -16 5 -19 2 -16 -16 3 -20 -5
-29 -40 -47 -8 -4 10 -43 19 -43 6 0 8 4 5 9 -8 13 50 86 70 86 26 0 41 30 25
49 -20 23 -29 20 -36 -14z"/>
<path d="M15810 10509 c0 -6 -7 -26 -16 -45 -18 -37 -12 -57 10 -33 16 17 29
89 15 89 -5 0 -9 -5 -9 -11z"/>
<path d="M15712 10436 c-21 -20 -21 -24 -8 -36 9 -7 16 -8 16 -2 0 5 11 13 25
16 28 7 33 31 9 40 -19 7 -14 9 -42 -18z"/>
<path d="M9680 10400 c0 -11 3 -20 8 -20 4 0 17 -3 30 -6 33 -9 27 13 -8 31
-29 15 -30 15 -30 -5z"/>
<path d="M15610 10345 c-8 -9 -8 -15 -2 -15 12 0 26 19 19 26 -2 2 -10 -2 -17
-11z"/>
<path d="M9653 10336 c-13 -6 -23 -14 -23 -18 0 -5 -8 -8 -17 -8 -10 0 -23
-11 -30 -25 -6 -14 -7 -25 -2 -25 5 0 9 -5 9 -11 0 -6 -8 -8 -19 -4 -18 5 -49
-19 -34 -28 16 -9 83 -6 83 4 0 6 -5 20 -11 32 -9 18 -9 20 2 10 7 -7 20 -13
29 -13 12 1 12 3 -3 14 -17 13 -17 14 0 21 10 5 24 9 31 9 7 1 19 13 27 29 12
24 12 27 -3 26 -9 -1 -27 -6 -39 -13z"/>
<path d="M15532 10339 c-12 -5 -25 -15 -28 -24 -3 -8 -10 -12 -15 -9 -5 3 -9
1 -9 -4 0 -5 -10 -12 -22 -15 l-22 -6 24 -26 c25 -26 23 -47 -2 -21 -22 22
-50 22 -83 2 -35 -20 -55 -57 -48 -86 3 -11 1 -20 -3 -21 -5 0 -33 -2 -62 -3
-39 -2 -57 -8 -73 -25 -21 -23 -18 -44 3 -23 19 19 33 14 15 -6 -11 -11 -13
-22 -7 -32 7 -12 12 -12 28 4 14 12 22 14 27 6 5 -8 16 1 32 24 15 21 40 40
62 47 19 7 47 19 61 28 31 19 107 101 101 110 -2 3 5 11 17 16 11 6 27 16 35
23 8 7 23 9 33 6 13 -4 11 0 -6 12 -14 10 -27 21 -30 25 -3 3 -15 3 -28 -2z
m-272 -244 c10 -12 10 -15 -4 -15 -9 0 -16 7 -16 15 0 8 2 15 4 15 2 0 9 -7
16 -15z"/>
<path d="M9491 10155 c-13 -25 -30 -45 -37 -45 -8 0 -14 -11 -14 -27 0 -24 1
-25 18 -11 9 9 24 13 32 10 13 -5 13 -3 1 11 -12 15 -11 17 5 16 41 -4 56 1
50 16 -3 8 0 15 7 15 7 0 18 9 24 19 13 21 14 20 -47 37 -10 2 -24 -12 -39
-41z"/>
<path d="M9388 10016 c-13 -12 -17 -21 -10 -24 17 -5 -9 -42 -29 -42 -21 0
-34 -31 -17 -42 30 -18 58 -8 88 34 36 49 37 58 8 58 -21 1 -22 2 -5 14 21 16
22 23 2 23 -8 0 -25 -9 -37 -21z"/>
<path d="M14993 9972 c-36 -19 -73 -63 -73 -85 0 -22 30 -31 31 -9 0 13 3 11
9 -5 5 -13 12 -23 15 -23 3 0 24 18 47 41 41 39 42 42 23 55 -12 9 -14 14 -6
14 8 0 19 -7 26 -16 10 -15 13 -15 29 1 37 38 -42 59 -101 27z"/>
<path d="M9542 9953 c-25 -5 -72 -93 -72 -137 0 -15 -7 -29 -15 -32 -8 -4 -15
-14 -15 -24 0 -10 -12 -33 -26 -50 -23 -27 -25 -34 -15 -56 14 -31 14 -34 -2
-34 -7 0 -17 -10 -22 -22 -6 -13 -20 -24 -32 -26 -13 -2 -23 -8 -23 -14 0 -16
-65 -109 -96 -138 -14 -13 -34 -35 -42 -48 -15 -23 -14 -25 3 -38 17 -13 17
-15 2 -32 -22 -25 -21 -39 3 -47 11 -3 20 -11 20 -16 0 -17 29 -9 40 10 6 13
17 17 30 14 11 -3 27 0 35 7 22 18 85 117 85 133 0 8 16 32 35 53 46 50 95
147 84 166 -12 19 -11 28 4 28 22 0 44 32 50 74 4 21 16 49 27 61 12 13 20 34
19 51 0 16 2 38 6 49 4 14 -1 30 -15 48 -21 27 -25 28 -68 20z"/>
<path d="M9285 9830 c-5 -15 -12 -19 -26 -15 -15 5 -19 2 -19 -14 0 -12 -4
-21 -8 -21 -5 0 -9 -13 -10 -30 -1 -37 13 -39 22 -4 6 22 11 25 33 19 20 -5
24 -3 20 9 -4 9 -3 16 1 16 4 0 7 14 8 30 1 34 -11 40 -21 10z"/>
<path d="M14917 9843 c-4 -3 -7 -12 -7 -20 0 -17 26 -17 33 1 8 21 -11 35 -26
19z"/>
<path d="M14793 9828 c-13 -6 -23 -19 -23 -29 0 -11 -5 -16 -14 -13 -7 3 -28
-8 -47 -23 -18 -15 -35 -27 -37 -25 -2 2 -19 -10 -39 -27 -20 -17 -41 -31 -48
-31 -6 0 -20 -8 -31 -18 -10 -10 -27 -21 -37 -25 -9 -4 -21 -15 -25 -26 -4
-11 -11 -19 -17 -18 -5 1 -14 -8 -20 -21 -5 -12 -14 -21 -20 -19 -5 2 -32 -11
-60 -30 -27 -18 -55 -33 -62 -33 -7 0 -29 -20 -49 -45 -22 -25 -49 -47 -66
-50 -27 -6 -54 -39 -50 -61 1 -5 -14 -10 -34 -11 -27 -1 -46 -10 -73 -36 -20
-19 -46 -40 -58 -46 -13 -7 -23 -18 -23 -26 0 -8 -6 -15 -14 -15 -7 0 -19 -7
-26 -15 -7 -8 -18 -15 -26 -15 -7 0 -29 -15 -49 -33 l-37 -34 26 -16 c18 -12
31 -15 43 -8 10 5 26 12 37 15 16 5 16 9 5 23 -12 15 -11 16 9 11 13 -4 20 -2
16 4 -9 14 28 38 42 27 7 -5 18 -2 30 9 18 17 50 34 67 36 17 2 107 89 107
104 0 11 16 22 48 32 30 10 51 24 57 38 5 12 17 22 27 22 9 0 29 11 45 24 15
13 44 31 63 41 19 10 37 21 40 24 3 3 25 20 50 36 58 39 100 80 100 97 0 10 9
13 29 10 22 -3 30 1 35 15 5 16 27 29 79 47 9 3 21 15 25 27 5 11 11 20 16 19
4 -1 27 8 51 21 l44 24 -26 27 c-29 30 -45 33 -80 16z m-303 -250 c0 6 7 12
15 12 8 0 15 -7 15 -15 0 -8 -4 -15 -10 -15 -5 0 -9 -3 -9 -7 4 -25 -3 -24
-16 1 -17 32 -20 49 -5 26 6 -10 10 -11 10 -2z m-120 -108 c0 -5 -8 -10 -17
-10 -15 0 -16 2 -3 10 19 12 20 12 20 0z"/>
<path d="M9147 9667 c-12 -12 -15 -23 -10 -28 12 -12 36 14 31 33 -2 10 -8 9
-21 -5z"/>
<path d="M9188 9655 c-8 -17 -22 -27 -51 -32 -32 -7 -45 -16 -60 -43 -10 -19
-32 -49 -48 -65 -31 -33 -36 -47 -16 -44 6 1 21 -2 31 -6 13 -6 23 -3 31 8 7
10 17 17 24 17 6 0 11 5 11 11 0 6 9 24 21 40 13 18 18 36 14 49 -4 11 -2 20
4 20 6 0 11 -6 11 -12 0 -7 16 4 35 25 19 21 35 42 35 48 0 19 -31 8 -42 -16z"/>
<path d="M8977 9463 c-4 -3 -7 -13 -7 -21 0 -7 -10 -22 -22 -32 -18 -14 -20
-20 -10 -33 10 -12 9 -16 -9 -20 -12 -3 -19 -12 -17 -19 3 -7 -6 -21 -19 -31
-13 -10 -20 -23 -17 -29 4 -6 0 -14 -7 -19 -8 -4 -16 -3 -20 3 -4 6 -12 7 -19
3 -10 -6 -10 -9 0 -15 9 -5 5 -16 -16 -39 -15 -17 -33 -31 -39 -31 -7 0 -17
-10 -23 -22 -7 -13 -17 -30 -23 -39 -18 -25 9 -81 35 -73 29 9 46 29 46 53 0
12 4 21 10 21 5 0 7 6 5 13 -2 6 14 24 36 40 22 15 43 35 46 45 4 9 22 32 40
51 24 25 33 43 33 67 0 27 5 35 25 40 35 9 42 40 14 70 -24 25 -31 28 -42 17z"/>
<path d="M13729 9038 c-5 -24 -4 -34 6 -40 13 -10 25 -10 25 0 0 12 -29 49
-31 40z"/>
<path d="M8640 8906 c0 -9 5 -16 10 -16 6 0 10 4 10 9 0 6 -4 13 -10 16 -5 3
-10 -1 -10 -9z"/>
<path d="M8428 8685 c-10 -13 -18 -28 -18 -34 0 -5 -3 -11 -7 -13 -5 -1 -17
-20 -28 -42 -10 -21 -30 -42 -43 -47 -16 -6 -22 -15 -20 -30 4 -29 35 -49 47
-30 5 7 14 10 20 7 6 -4 11 -1 11 8 0 8 7 22 16 31 10 9 14 26 11 40 -3 19 0
25 14 25 18 0 25 21 19 60 -2 12 2 11 18 -3 17 -16 21 -16 32 -2 10 12 8 18
-11 35 -31 25 -40 24 -61 -5z"/>
<path d="M13264 8695 c-38 -40 -20 -74 32 -61 l27 7 -22 23 c-16 17 -19 25
-10 28 10 3 9 6 -2 10 -8 3 -19 0 -25 -7z"/>
<path d="M13187 8644 c-8 -8 3 -34 15 -34 7 0 6 5 -1 13 -6 8 -8 17 -4 20 3 4
4 7 1 7 -2 0 -7 -3 -11 -6z"/>
<path d="M13730 8639 c0 -7 -11 -9 -29 -6 -15 3 -33 1 -40 -6 -14 -14 -15 -47
-1 -47 6 0 10 -7 10 -16 0 -20 60 -74 82 -74 10 0 18 -4 18 -8 0 -20 43 -52
71 -52 17 0 32 -6 35 -15 4 -8 12 -15 19 -15 8 0 15 -8 17 -17 2 -13 14 -17
43 -18 34 0 41 -4 43 -22 3 -19 48 -63 65 -63 2 0 22 -16 43 -35 24 -22 48
-35 66 -35 17 0 31 -7 38 -20 7 -13 21 -20 41 -20 19 0 38 -9 54 -26 13 -14
28 -23 33 -20 10 6 25 -18 27 -41 1 -19 46 -62 60 -57 8 4 15 -3 17 -18 2 -19
9 -23 39 -24 49 -1 62 -10 49 -34 -15 -28 -12 -37 11 -43 15 -4 20 -11 15 -22
-4 -12 0 -19 14 -22 11 -3 20 -11 20 -19 0 -7 12 -16 28 -20 57 -13 61 -15 55
-31 -4 -11 -2 -14 5 -9 7 4 27 2 46 -5 31 -11 34 -15 29 -45 -4 -26 -1 -34 16
-44 17 -9 26 -9 37 1 18 15 19 14 37 -41 8 -26 23 -49 35 -55 12 -5 29 -24 39
-42 10 -18 23 -33 30 -33 7 0 19 -15 27 -34 8 -18 32 -48 55 -66 32 -26 38
-36 29 -47 -9 -11 -2 -22 32 -53 25 -22 40 -40 36 -40 -5 0 -3 -6 4 -14 6 -8
17 -13 24 -10 8 3 11 -7 11 -30 -2 -34 28 -96 46 -96 5 0 18 -20 30 -45 12
-25 34 -55 50 -66 16 -11 29 -27 29 -34 0 -8 15 -17 35 -21 35 -6 49 -24 19
-24 -13 0 -15 -7 -11 -36 10 -59 47 -124 88 -153 43 -30 48 -41 19 -48 -24 -6
-25 -11 -4 -35 9 -9 18 -36 20 -59 2 -23 7 -46 11 -52 4 -6 8 -24 10 -41 2
-16 8 -35 14 -43 7 -7 15 -28 18 -46 7 -30 9 -32 49 -30 29 1 42 -2 42 -12 0
-8 -7 -11 -19 -8 -23 6 -36 -15 -44 -70 -6 -36 14 -114 31 -127 9 -6 32 -93
32 -119 0 -11 4 -21 8 -23 5 -1 20 -25 34 -53 21 -44 28 -50 55 -50 34 -1 78
28 69 44 -4 5 -2 12 4 16 6 4 7 13 1 23 -4 9 -6 23 -3 30 5 15 0 26 -37 103
-12 26 -24 57 -25 70 -2 13 -13 43 -25 67 -12 24 -21 53 -19 65 2 14 -2 22
-11 22 -8 0 -16 6 -18 13 -3 6 2 12 11 12 16 0 20 17 10 44 -3 8 -11 13 -18
10 -10 -4 -13 9 -13 48 1 37 -6 68 -23 102 -16 33 -20 51 -12 54 7 2 2 18 -14
42 -14 21 -23 44 -19 50 7 11 -9 52 -48 125 -12 22 -26 50 -32 62 -5 13 -16
23 -23 23 -6 0 -11 3 -10 8 2 4 -4 26 -11 50 -12 35 -18 42 -34 38 -15 -4 -18
0 -14 14 3 13 -8 33 -32 59 -21 23 -36 43 -33 46 3 2 -3 7 -12 11 -9 3 -16 15
-16 25 0 12 -7 19 -19 19 -13 0 -23 11 -31 34 -6 20 -19 36 -32 39 -16 5 -19
11 -15 33 3 20 0 28 -14 31 -11 3 -19 12 -19 20 0 8 -6 20 -12 27 -7 8 -19 23
-27 34 -8 11 -21 18 -30 15 -13 -4 -13 -3 -2 5 23 16 5 45 -23 38 -30 -7 -43
9 -20 22 15 8 11 17 -31 66 -27 31 -52 56 -56 56 -3 0 -12 -7 -19 -15 -16 -19
-31 -20 -24 -1 6 15 -29 40 -40 29 -3 -3 -6 -2 -6 4 0 20 14 23 36 8 14 -9 25
-11 29 -5 8 14 -82 103 -95 95 -6 -4 -9 -3 -8 2 4 16 -13 51 -29 57 -8 4 -22
1 -29 -5 -14 -11 -15 -9 -30 38 -2 7 -14 12 -26 10 -18 -2 -24 4 -26 26 -2 16
-9 27 -18 27 -10 0 -14 -8 -12 -22 2 -11 -3 -23 -9 -25 -10 -4 -11 7 -7 40 6
44 0 54 -41 62 -40 8 -56 19 -54 39 3 39 -1 45 -31 61 -18 9 -30 23 -30 35 0
15 -7 20 -25 20 -20 0 -25 5 -25 24 0 19 -7 26 -30 31 -16 4 -30 11 -30 17 0
12 -41 47 -56 48 -6 0 -17 7 -24 15 -7 8 -29 19 -50 25 -21 6 -41 17 -44 25
-3 8 -14 15 -25 15 -11 0 -18 6 -17 16 1 11 -14 21 -46 31 -27 7 -48 19 -48
26 0 20 -51 65 -82 72 -15 4 -32 13 -39 21 -16 19 -46 18 -57 -2 -13 -24 -35
-7 -28 21 7 26 -28 61 -71 71 -14 4 -23 14 -23 25 0 19 -28 39 -54 39 -9 0
-16 -5 -16 -11z m1278 -1122 c7 -8 6 -17 -3 -30 -11 -16 -13 -15 -17 13 -5 32
3 38 20 17z"/>
<path d="M13240 8609 c0 -5 -4 -7 -10 -4 -5 3 -17 2 -26 -3 -11 -6 -13 -11 -5
-16 8 -5 8 -13 0 -28 -11 -20 -11 -20 19 -2 17 10 29 21 26 26 -3 4 0 8 5 8 6
0 11 7 11 15 0 8 -4 15 -10 15 -5 0 -10 -5 -10 -11z"/>
<path d="M13157 8564 c3 -9 -2 -14 -16 -14 -12 0 -21 -4 -21 -10 0 -5 -11 -10
-25 -10 -14 0 -25 -4 -25 -10 0 -5 9 -10 20 -10 11 0 20 -4 20 -10 0 -5 5 -10
10 -10 6 0 10 7 10 15 0 9 11 20 25 25 27 10 33 35 11 43 -10 4 -13 1 -9 -9z"/>
<path d="M8669 8518 c-7 -28 -5 -38 7 -38 16 0 19 26 4 35 -5 3 -10 5 -11 3z"/>
<path d="M13010 8489 c-13 -8 -12 -12 4 -24 10 -8 24 -11 29 -8 8 5 7 8 -1 11
-7 2 -10 8 -7 12 8 13 -9 20 -25 9z"/>
<path d="M12970 8461 c0 -14 -6 -21 -20 -21 -13 0 -29 -13 -42 -36 -15 -26
-23 -32 -29 -22 -7 10 -11 10 -21 0 -10 -10 -9 -16 5 -29 16 -16 18 -16 37 5
12 12 32 22 45 22 15 0 25 6 25 14 0 7 9 20 20 27 19 14 19 14 0 38 -20 23
-20 23 -20 2z"/>
<path d="M8295 8450 c-3 -5 -14 -10 -24 -10 -27 0 -58 -37 -43 -52 9 -9 4 -16
-20 -31 -25 -15 -28 -21 -17 -28 11 -7 9 -9 -8 -9 -16 0 -21 -5 -18 -20 2 -11
-1 -20 -6 -20 -6 0 -7 -4 -4 -10 3 -5 0 -7 -8 -4 -20 7 -73 -86 -56 -97 7 -4
19 -5 28 -1 19 6 86 74 83 84 -1 4 6 9 16 12 9 3 25 21 36 38 50 87 76 137 76
147 0 14 -27 14 -35 1z m-65 -140 c0 -5 -4 -10 -10 -10 -5 0 -10 5 -10 10 0 6
5 10 10 10 6 0 10 -4 10 -10z"/>
<path d="M12777 8334 c-8 -8 1 -24 14 -24 5 0 9 7 9 15 0 15 -12 20 -23 9z"/>
<path d="M12800 8301 c0 -5 -7 -8 -16 -7 -25 2 -28 -21 -4 -34 24 -13 41 -5
33 15 -3 8 0 15 7 15 6 0 8 5 5 10 -8 12 -25 13 -25 1z"/>
<path d="M12664 8210 c-12 -5 -25 -13 -28 -19 -4 -6 -13 -8 -22 -4 -18 7 -54
-24 -48 -42 7 -18 -16 -31 -26 -14 -7 10 -11 10 -24 0 -22 -19 -20 -34 4 -28
10 3 20 1 22 -4 2 -5 22 0 45 11 23 11 47 20 52 20 6 0 15 9 21 20 6 11 26 27
45 35 19 7 35 19 35 24 0 13 -46 13 -76 1z"/>
<path d="M8055 8120 c-3 -5 1 -10 9 -10 9 0 16 5 16 10 0 6 -4 10 -9 10 -6 0
-13 -4 -16 -10z"/>
<path d="M8024 8092 c0 -10 -6 -16 -16 -16 -10 1 -18 -4 -18 -11 0 -6 -9 -20
-19 -30 -23 -20 -63 -96 -55 -104 3 -4 14 5 25 18 10 13 25 21 33 18 8 -3 22
3 32 14 9 10 13 19 9 19 -5 0 -4 5 2 11 6 6 9 18 6 25 -3 8 0 14 6 14 6 0 8 7
5 15 -5 11 0 14 14 13 12 -2 21 2 21 7 1 6 -5 10 -12 10 -6 0 -17 4 -23 8 -7
4 -11 0 -10 -11z m-14 -56 c0 -2 -8 -10 -17 -17 -16 -13 -17 -12 -4 4 13 16
21 21 21 13z"/>
<path d="M12424 8019 c-9 -15 12 -17 30 -4 17 13 17 14 -4 12 -12 -1 -24 -5
-26 -8z"/>
<path d="M12253 7922 c-13 -2 -23 -7 -23 -12 0 -4 8 -6 18 -3 10 2 24 -3 31
-11 15 -18 36 -22 26 -5 -4 6 1 16 10 23 16 11 14 13 -11 12 -16 0 -39 -2 -51
-4z"/>
<path d="M7935 7910 c-4 -6 -10 -8 -15 -5 -5 3 -14 -3 -19 -14 -17 -30 -13
-34 11 -11 12 11 28 20 35 20 7 0 13 5 13 10 0 13 -17 13 -25 0z"/>
<path d="M12183 7869 c-28 -10 -48 -45 -30 -53 6 -3 3 -4 -9 -1 -15 4 -24 -1
-32 -20 -8 -17 -20 -25 -37 -25 -14 0 -34 -9 -45 -20 -11 -11 -23 -20 -27 -20
-5 0 -26 -16 -47 -36 -34 -31 -46 -38 -75 -43 -3 -1 4 -8 15 -17 10 -8 15 -13
9 -11 -5 3 -21 1 -34 -4 -16 -6 -21 -14 -17 -25 4 -9 -1 -28 -9 -41 -13 -19
-19 -21 -35 -13 -10 5 -22 10 -27 10 -14 0 -64 -51 -58 -60 3 -4 -1 -10 -7
-13 -7 -2 -9 -8 -5 -13 5 -5 13 -1 18 9 8 14 18 16 43 12 28 -6 37 -2 62 27
19 21 36 32 49 29 15 -2 17 0 9 10 -13 16 -14 49 -2 49 4 0 8 -4 8 -10 0 -5 9
-10 20 -10 11 0 20 6 20 14 0 7 7 19 15 26 9 7 13 20 10 29 -4 13 -2 13 9 -1
12 -17 14 -17 30 1 10 11 28 22 41 25 13 3 27 18 33 34 6 18 22 34 41 42 17 7
31 16 31 21 0 5 9 9 20 9 24 0 81 52 72 65 -17 24 -38 32 -59 24z m31 -37 c2
-4 -4 -13 -15 -20 -15 -10 -19 -10 -19 1 0 24 23 36 34 19z m-74 -36 c0 -3 -4
-8 -10 -11 -5 -3 -10 -1 -10 4 0 6 5 11 10 11 6 0 10 -2 10 -4z m-200 -156 c0
-5 -5 -10 -11 -10 -5 0 -7 5 -4 10 3 6 8 10 11 10 2 0 4 -4 4 -10z"/>
<path d="M7848 7853 c7 -3 16 -2 19 1 4 3 -2 6 -13 5 -11 0 -14 -3 -6 -6z"/>
<path d="M7835 7830 c3 -5 8 -10 11 -10 2 0 4 5 4 10 0 6 -5 10 -11 10 -5 0
-7 -4 -4 -10z"/>
<path d="M11618 7443 c-10 -3 -21 -16 -25 -31 -3 -14 -15 -41 -25 -58 -12 -21
-15 -35 -9 -39 12 -7 50 11 52 25 1 6 2 14 3 19 0 5 4 13 8 17 4 4 3 13 -3 20
-8 10 -6 12 10 9 15 -3 21 1 21 15 0 22 -8 28 -32 23z"/>
<path d="M11520 7312 c0 -12 0 -25 -1 -29 -1 -12 15 -13 31 -3 13 8 12 13 -7
32 l-23 22 0 -22z"/>
<path d="M11468 7303 c-10 -2 -18 -9 -18 -14 0 -14 16 -11 30 6 7 8 11 14 9
14 -2 -1 -12 -3 -21 -6z"/>
<path d="M11339 7203 c-1 -2 -2 -8 -3 -13 0 -6 -5 -14 -11 -18 -5 -4 -16 -17
-22 -29 -11 -19 -10 -24 7 -33 17 -9 20 -8 20 10 0 12 4 19 8 16 12 -7 67 52
58 61 -7 8 -55 12 -57 6z"/>
<path d="M7480 7189 c0 -5 5 -7 10 -4 6 3 10 8 10 11 0 2 -4 4 -10 4 -5 0 -10
-5 -10 -11z"/>
<path d="M7421 7164 c0 -11 3 -14 6 -6 3 7 2 16 -1 19 -3 4 -6 -2 -5 -13z"/>
<path d="M7456 7165 c4 -8 8 -15 10 -15 2 0 4 7 4 15 0 8 -4 15 -10 15 -5 0
-7 -7 -4 -15z"/>
<path d="M7371 7123 c3 -21 -2 -33 -16 -33 -11 0 -14 -7 -9 -24 4 -18 1 -27
-15 -36 -12 -6 -21 -17 -21 -25 0 -9 -9 -23 -20 -32 -11 -10 -20 -24 -20 -32
0 -7 -7 -19 -17 -26 -9 -7 -13 -17 -9 -24 11 -17 46 16 46 43 1 19 2 19 13 5
14 -18 37 -14 37 6 0 7 6 15 13 18 8 3 12 23 11 60 -1 44 1 54 12 50 8 -3 14
-9 14 -14 0 -5 6 -9 14 -9 24 0 26 27 5 54 -19 25 -40 35 -38 19z"/>
<path d="M11185 7100 c-4 -6 -3 -16 3 -22 6 -6 12 -6 17 2 4 6 3 16 -3 22 -6
6 -12 6 -17 -2z"/>
<path d="M11262 7098 c6 -18 28 -21 28 -4 0 9 -7 16 -16 16 -9 0 -14 -5 -12
-12z"/>
<path d="M11128 7064 c-36 -19 -37 -44 -1 -44 25 0 25 -1 9 -19 -28 -31 -1
-34 44 -5 22 15 40 30 40 35 0 8 -49 49 -59 49 -3 -1 -18 -8 -33 -16z"/>
<path d="M11030 6970 c0 -5 -6 -10 -12 -11 -7 0 -40 -20 -73 -44 -33 -25 -74
-55 -92 -67 -18 -13 -34 -31 -37 -41 -2 -11 -10 -15 -20 -11 -22 8 -21 -15 1
-31 15 -11 15 -15 4 -29 -15 -18 -41 -22 -41 -6 0 6 -9 10 -20 10 -12 0 -20
-7 -20 -17 0 -15 -2 -15 -9 -4 -7 11 -19 6 -58 -25 -26 -21 -50 -42 -53 -45
-3 -4 -14 -8 -25 -10 -15 -3 -20 -12 -20 -39 0 -31 3 -35 25 -35 31 0 70 15
70 27 0 5 14 14 30 19 17 6 30 18 30 27 0 16 59 62 79 62 5 0 29 18 53 40 37
32 44 44 40 68 -4 29 23 65 36 46 8 -11 62 -15 62 -5 0 4 14 15 30 24 17 10
30 27 30 38 0 10 7 19 15 19 21 0 31 30 14 41 -19 12 -39 11 -39 -1z m-429
-377 c13 -15 12 -15 -8 -4 -24 12 -29 21 -14 21 5 0 15 -7 22 -17z"/>
<path d="M7298 6883 c7 -3 16 -2 19 1 4 3 -2 6 -13 5 -11 0 -14 -3 -6 -6z"/>
<path d="M7220 6837 c-14 -6 -27 -12 -29 -14 -2 -1 -5 -23 -7 -48 -3 -40 -1
-46 14 -43 9 2 17 11 17 20 0 10 9 24 20 32 11 9 16 16 10 16 -5 0 -4 4 4 9 9
6 10 14 5 23 -7 12 -14 13 -34 5z"/>
<path d="M10900 6815 c-21 -25 -1 -31 23 -7 17 18 18 22 5 22 -8 0 -21 -7 -28
-15z"/>
<path d="M7113 6684 c-27 -29 -29 -38 -7 -30 12 5 15 2 10 -11 -4 -9 -1 -20 6
-25 21 -13 28 -9 28 16 0 13 5 26 11 28 8 3 8 10 -2 26 -17 26 -18 26 -46 -4z"/>
<path d="M7064 6605 c-4 -17 -2 -30 5 -34 7 -4 9 -15 5 -26 -5 -13 -3 -16 7
-13 9 3 14 19 13 48 -1 50 -20 65 -30 25z"/>
<path d="M10520 6585 c-6 -8 -9 -19 -5 -25 4 -7 -2 -9 -19 -4 -17 4 -26 2 -26
-5 0 -6 -11 -16 -25 -21 -22 -9 -24 -13 -15 -31 14 -26 7 -35 -10 -14 -16 19
-30 19 -30 0 0 -9 -6 -12 -15 -9 -16 7 -21 -21 -7 -44 9 -13 46 -12 59 3 5 4
2 5 -4 1 -8 -4 -13 -1 -13 9 0 9 6 15 13 14 37 -5 59 5 97 43 38 38 40 43 25
55 -10 7 -15 19 -12 28 8 19 3 19 -13 0z"/>
<path d="M7011 6526 c-16 -24 -28 -46 -24 -49 7 -8 -25 -77 -36 -77 -9 0 -34
-54 -32 -65 1 -3 -7 -14 -17 -23 -11 -9 -25 -33 -33 -52 -7 -19 -19 -41 -26
-48 -7 -8 -10 -18 -7 -24 4 -6 8 -20 9 -32 1 -11 3 -25 4 -29 4 -25 80 97 81
128 0 6 16 27 35 47 38 40 43 50 20 42 -24 -10 -17 20 8 31 16 7 22 19 22 44
1 19 8 38 18 46 9 7 17 22 17 34 0 12 4 31 10 41 7 13 6 19 -4 23 -8 3 -26
-12 -45 -37z"/>
<path d="M10316 6435 c-3 -8 -1 -15 4 -15 6 0 10 7 10 15 0 8 -2 15 -4 15 -2
0 -6 -7 -10 -15z"/>
<path d="M10266 6336 c7 -19 38 -22 32 -3 -3 6 -12 13 -21 15 -12 2 -15 -1
-11 -12z"/>
<path d="M10183 6315 c-7 -8 -13 -18 -13 -23 0 -15 -38 -44 -41 -33 -5 13 -59
-31 -59 -48 0 -6 -11 -11 -24 -11 -35 0 -56 -10 -56 -27 0 -15 26 -15 85 0 11
3 27 6 35 7 10 1 11 3 3 6 -7 3 -9 12 -6 20 4 10 8 12 12 5 5 -7 14 -5 28 8
11 11 39 29 62 40 22 12 41 26 41 31 0 16 -20 22 -35 10 -8 -7 -15 -7 -19 -1
-4 5 2 14 11 20 14 8 15 10 3 10 -8 0 -21 -6 -27 -14z"/>
<path d="M9873 6103 c-12 -2 -25 -13 -28 -24 -4 -12 -13 -18 -20 -15 -8 3 -19
-1 -25 -9 -9 -10 -6 -15 9 -20 36 -11 23 -23 -19 -18 -31 4 -41 2 -46 -11 -3
-9 -11 -16 -16 -16 -6 0 -21 -12 -34 -26 -13 -14 -28 -23 -33 -20 -5 3 -14 -1
-21 -9 -14 -16 -97 -75 -107 -75 -3 0 -28 -17 -56 -37 -28 -21 -76 -54 -106
-75 -115 -76 -137 -95 -156 -132 -21 -40 -48 -57 -75 -49 -9 3 -11 2 -5 -4 6
-4 11 -17 13 -27 3 -18 2 -18 -13 -2 -9 9 -22 16 -29 16 -18 0 -59 -47 -52
-59 5 -7 1 -8 -9 -5 -9 4 -23 -2 -34 -15 -10 -11 -23 -21 -29 -21 -6 0 -22
-11 -36 -25 -14 -14 -32 -25 -41 -25 -8 0 -15 -7 -15 -15 0 -9 -8 -18 -17 -21
-52 -18 -73 -31 -72 -44 2 -28 -1 -31 -22 -19 -19 10 -26 7 -50 -19 -30 -32
-31 -79 -2 -68 8 3 17 6 19 6 2 0 4 11 4 25 0 16 6 25 15 25 8 0 15 -4 15 -10
0 -18 28 -11 54 14 15 13 26 31 26 41 0 14 3 15 14 5 12 -9 24 -7 60 9 25 11
46 24 46 29 0 5 20 19 46 32 25 13 66 45 93 71 26 25 67 55 92 66 24 11 53 30
65 41 11 11 30 22 41 26 11 4 28 15 38 26 10 11 24 20 31 20 8 0 21 11 30 25
9 13 24 27 34 30 11 3 35 22 54 41 18 18 39 34 45 34 6 0 8 7 4 16 -5 13 -2
15 16 9 17 -5 27 0 42 19 11 14 30 26 41 26 11 0 22 8 25 20 3 11 9 21 14 21
5 1 13 2 18 3 5 0 27 20 49 43 22 22 54 49 72 58 22 11 30 21 26 32 -4 9 1 21
11 29 17 12 17 13 -1 20 -19 7 -19 8 0 14 10 4 27 3 38 -2 17 -9 47 5 35 16
-9 8 -45 13 -66 9z m-698 -573 c3 -5 1 -10 -4 -10 -6 0 -11 5 -11 10 0 6 2 10
4 10 3 0 8 -4 11 -10z"/>
<path d="M6780 6049 c0 -5 5 -7 10 -4 6 3 10 8 10 11 0 2 -4 4 -10 4 -5 0 -10
-5 -10 -11z"/>
<path d="M6740 5961 c0 -5 7 -11 15 -15 8 -3 15 -1 15 3 0 5 -7 11 -15 15 -8
3 -15 1 -15 -3z"/>
<path d="M6715 5932 c-12 -12 -4 -20 15 -15 11 3 20 9 20 12 0 9 -27 10 -35 3z"/>
<path d="M15728 5908 c-16 -5 -28 -14 -28 -19 0 -6 5 -7 10 -4 6 4 10 -8 10
-28 0 -37 17 -51 47 -40 11 4 14 3 9 -6 -5 -7 1 -22 15 -37 l22 -24 -21 0
c-12 0 -22 -4 -22 -10 0 -5 5 -10 11 -10 5 0 8 -4 5 -8 -3 -5 7 -22 22 -38 25
-26 27 -36 26 -94 0 -36 3 -70 9 -77 5 -7 6 -35 2 -62 -7 -48 9 -103 51 -183
8 -14 14 -42 14 -62 0 -20 6 -51 14 -69 7 -18 16 -54 20 -80 4 -28 12 -47 20
-47 9 0 12 -16 12 -51 -1 -28 2 -53 6 -55 5 -3 8 -13 8 -22 0 -10 9 -26 21
-35 19 -17 20 -20 4 -43 -14 -21 -14 -31 -4 -61 6 -20 11 -82 10 -139 -2 -81
2 -110 15 -136 10 -18 17 -45 15 -59 -1 -15 5 -34 15 -43 14 -14 15 -21 5 -40
-10 -19 -10 -30 4 -62 10 -21 19 -57 21 -79 11 -132 23 -197 38 -214 19 -20
21 -35 4 -25 -8 5 -9 -2 -5 -26 4 -18 7 -45 7 -61 0 -16 9 -38 20 -49 21 -21
27 -55 11 -65 -13 -8 -2 -192 13 -230 10 -23 10 -37 1 -60 -9 -21 -10 -56 -4
-119 5 -49 5 -94 0 -100 -9 -13 -5 -189 7 -271 10 -66 5 -122 -12 -144 -11
-14 -16 -150 -6 -149 18 1 19 -5 4 -28 -13 -19 -14 -28 -5 -37 17 -17 13 -65
-6 -75 -13 -8 -16 -22 -14 -63 4 -84 4 -111 -3 -154 -4 -22 -8 -60 -10 -85
-10 -123 -20 -197 -31 -220 -12 -26 -13 -85 -2 -97 10 -9 8 -25 -2 -19 -12 7
-33 -63 -35 -115 -1 -24 -4 -49 -8 -54 -17 -27 -48 -123 -48 -151 0 -77 69
-91 131 -27 59 62 73 98 74 189 1 44 6 87 11 95 4 8 9 41 10 74 1 33 7 85 13
115 6 30 13 89 14 130 2 52 9 89 25 120 19 41 21 57 17 160 -8 230 -7 296 4
360 9 49 9 70 0 87 -7 12 -9 37 -6 56 3 20 1 39 -6 46 -8 8 -6 16 7 30 21 23
39 175 24 204 -5 10 -5 32 1 53 7 25 6 49 -3 84 -7 27 -9 55 -5 62 12 18 11
86 -1 93 -5 3 -10 13 -10 21 0 8 -9 34 -20 56 -24 50 -25 77 -4 85 13 5 15 16
10 57 -4 28 -9 85 -11 126 -3 41 -8 91 -11 110 -3 19 -7 54 -7 78 -2 30 -7 46
-20 53 -12 7 -16 17 -12 30 4 11 -1 27 -14 41 -25 26 -27 40 -6 32 22 -9 19
38 -5 68 -16 21 -19 38 -16 98 3 62 0 75 -17 91 -16 15 -18 21 -8 33 13 15 6
81 -11 102 -5 7 -10 26 -11 43 -1 17 -6 29 -12 27 -16 -5 -45 13 -45 29 0 8 8
20 18 27 28 19 33 66 14 121 -13 37 -14 51 -5 66 9 14 9 23 -1 37 -7 11 -11
28 -9 39 13 65 10 139 -7 169 -10 17 -21 54 -25 81 -4 28 -13 64 -20 80 -18
42 -45 145 -70 270 -19 93 -42 152 -61 159 -10 4 -12 14 -8 30 4 17 -1 35 -15
55 -12 16 -21 35 -21 43 0 22 -22 38 -52 38 -15 0 -28 5 -28 10 0 6 -4 10 -10
10 -5 0 -10 -8 -10 -17 0 -15 -1 -15 -12 -1 -10 12 -19 14 -40 6z m402 -1303
c0 -29 -15 -33 -29 -6 -11 20 -5 31 16 31 7 0 13 -11 13 -25z m120 -994 c0 -6
-4 -13 -10 -16 -5 -3 -10 1 -10 9 0 9 5 16 10 16 6 0 10 -4 10 -9z m-108
-2006 c0 -5 -5 -11 -11 -13 -6 -2 -11 4 -11 13 0 9 5 15 11 13 6 -2 11 -8 11
-13z"/>
<path d="M6651 5791 c-21 -6 -61 -64 -69 -101 -2 -8 -10 -28 -18 -44 -13 -27
-13 -32 4 -48 24 -24 45 -15 65 28 13 26 15 40 7 55 -8 13 -8 19 0 19 6 0 8 5
5 11 -4 6 3 17 15 26 13 9 19 21 15 31 -3 8 0 19 7 24 15 9 3 9 -31 -1z m-47
-192 c-3 -5 -10 -7 -15 -3 -5 3 -7 10 -3 15 3 5 10 7 15 3 5 -3 7 -10 3 -15z"/>
<path d="M6333 5527 c-16 -16 -23 -35 -23 -60 0 -24 -5 -40 -15 -43 -8 -4 -15
-12 -15 -20 0 -8 -4 -14 -10 -14 -5 0 -10 -8 -10 -19 0 -10 -9 -25 -19 -32
-18 -13 -25 -40 -22 -77 1 -7 15 -21 31 -31 25 -15 36 -16 65 -7 32 10 35 14
35 49 0 21 7 49 16 63 15 23 15 26 0 43 -11 13 -14 21 -7 26 16 9 13 55 -3 55
-13 0 -26 20 -26 41 0 5 12 8 28 7 21 -2 28 2 30 20 4 29 -25 29 -55 -1z m-63
-227 c0 -5 -7 -7 -15 -4 -8 4 -15 8 -15 10 0 2 7 4 15 4 8 0 15 -4 15 -10z"/>
<path d="M6526 5484 c-9 -24 -7 -34 7 -34 14 0 39 35 30 44 -12 11 -31 6 -37
-10z"/>
<path d="M6470 5340 c0 -13 5 -20 13 -17 6 2 12 10 12 17 0 7 -6 15 -12 18 -8
2 -13 -5 -13 -18z"/>
<path d="M6256 5173 c7 -25 6 -27 -10 -14 -14 12 -16 12 -10 -2 3 -8 0 -25 -6
-38 -10 -18 -10 -21 2 -17 11 5 13 -2 9 -31 -4 -25 -6 -29 -9 -14 -5 30 -41
41 -59 17 -7 -10 -13 -26 -13 -36 0 -10 -9 -27 -20 -38 -11 -11 -23 -32 -26
-47 -4 -16 -15 -39 -24 -53 -20 -28 -28 -69 -17 -87 4 -7 -1 -17 -11 -25 -26
-18 -43 -53 -36 -73 4 -9 -1 -21 -11 -29 -13 -9 -16 -20 -11 -39 4 -19 0 -32
-18 -52 -13 -14 -27 -41 -30 -60 -4 -19 -11 -35 -16 -35 -6 0 -10 -8 -10 -19
0 -10 -9 -30 -21 -45 -11 -14 -27 -57 -36 -94 -12 -50 -22 -71 -37 -78 -12 -5
-23 -23 -27 -44 -4 -18 -14 -39 -21 -45 -19 -13 -20 -85 -3 -92 8 -2 17 -28
21 -59 5 -46 9 -53 21 -42 8 6 12 21 9 33 -4 15 1 23 17 30 14 7 23 21 25 40
2 16 12 41 23 56 10 15 19 32 19 38 0 6 11 17 25 23 30 14 65 66 65 98 0 12 9
35 21 51 11 16 18 36 15 45 -6 15 10 50 30 69 7 5 14 21 17 35 15 69 32 116
44 123 7 4 13 16 13 25 0 9 12 35 25 57 28 45 33 106 10 125 -8 7 -12 17 -9
22 4 6 10 5 15 -3 6 -11 15 -6 38 21 17 19 30 43 31 53 0 10 5 27 11 38 5 11
11 37 12 59 0 21 5 36 9 34 9 -6 15 8 21 46 2 14 7 33 11 42 10 22 0 38 -24
38 -10 0 -22 5 -25 10 -13 21 -25 9 -19 -17z m-246 -783 c0 -5 -7 -10 -16 -10
-8 0 -12 5 -9 10 3 6 10 10 16 10 5 0 9 -4 9 -10z m-40 -40 c0 -5 -5 -10 -11
-10 -5 0 -7 5 -4 10 3 6 8 10 11 10 2 0 4 -4 4 -10z"/>
<path d="M8650 5159 c0 -5 5 -7 10 -4 6 3 10 8 10 11 0 2 -4 4 -10 4 -5 0 -10
-5 -10 -11z"/>
<path d="M6374 5108 c-5 -8 -2 -9 9 -5 14 5 15 3 4 -13 -6 -11 -16 -20 -22
-20 -5 0 -3 -5 5 -10 12 -8 13 -13 3 -29 -10 -15 -10 -21 0 -24 9 -3 9 -9 0
-26 -7 -11 -13 -23 -13 -26 0 -11 26 -3 49 15 19 17 21 23 11 35 -7 8 -8 15
-3 15 5 0 15 12 22 27 10 21 9 28 -1 34 -7 5 -8 9 -3 9 14 1 -26 30 -41 30 -7
0 -16 -5 -20 -12z"/>
<path d="M8485 5100 c-10 -11 -27 -20 -39 -20 -14 0 -17 -3 -9 -11 14 -14 69
-8 66 7 -1 7 6 10 18 7 19 -5 20 -4 10 16 -14 26 -23 26 -46 1z"/>
<path d="M8350 5030 c0 -6 7 -10 15 -10 8 0 15 2 15 4 0 2 -7 6 -15 10 -8 3
-15 1 -15 -4z"/>
<path d="M8280 4990 c0 -5 -9 -10 -20 -10 -11 0 -30 -10 -42 -22 -13 -13 -29
-22 -35 -20 -7 2 -13 -6 -13 -18 0 -17 4 -19 25 -14 16 4 25 2 25 -6 0 -6 5
-8 10 -5 8 5 8 11 0 20 -9 11 -4 13 28 10 34 -2 38 0 38 18 -1 12 5 22 12 23
6 1 18 2 25 3 6 1 -1 8 -17 16 -34 18 -36 18 -36 5z"/>
<path d="M8095 4880 c-12 -20 5 -28 35 -17 17 6 30 14 30 17 0 9 -59 9 -65 0z"/>
<path d="M6390 4854 c0 -8 5 -12 10 -9 6 4 8 11 5 16 -9 14 -15 11 -15 -7z"/>
<path d="M6400 4800 c-6 -11 -16 -18 -22 -14 -6 4 -9 3 -6 -2 22 -49 34 -64
50 -64 10 0 18 -4 18 -10 0 -5 -4 -10 -8 -10 -4 0 -9 -11 -10 -25 -1 -16 3
-25 13 -25 8 0 15 -9 15 -20 0 -11 5 -20 10 -20 6 0 10 7 10 15 0 8 9 15 20
15 11 0 20 3 20 8 0 11 -37 41 -44 36 -3 -2 -4 -1 -1 2 2 4 -9 24 -25 44 l-30
38 22 14 c12 8 18 19 14 26 -11 18 -34 14 -46 -8z"/>
<path d="M8022 4809 c2 -7 10 -15 17 -17 8 -3 12 1 9 9 -2 7 -10 15 -17 17 -8
3 -12 -1 -9 -9z"/>
<path d="M7887 4764 c-8 -8 1 -24 14 -24 5 0 9 7 9 15 0 15 -12 20 -23 9z"/>
<path d="M8000 4760 c0 -5 5 -10 10 -10 6 0 10 5 10 10 0 6 -4 10 -10 10 -5 0
-10 -4 -10 -10z"/>
<path d="M7840 4719 c0 -5 5 -7 10 -4 6 3 10 8 10 11 0 2 -4 4 -10 4 -5 0 -10
-5 -10 -11z"/>
<path d="M7775 4701 c-6 -11 9 -23 19 -14 9 9 7 23 -3 23 -6 0 -12 -4 -16 -9z"/>
<path d="M7840 4685 c0 -8 7 -15 15 -15 8 0 15 7 15 15 0 8 -7 15 -15 15 -8 0
-15 -7 -15 -15z"/>
<path d="M7760 4665 c7 -9 15 -13 17 -11 7 7 -7 26 -19 26 -6 0 -6 -6 2 -15z"/>
<path d="M7639 4643 c-20 -23 -68 -63 -74 -63 -3 0 -5 7 -5 15 0 16 -9 19 -27
7 -18 -11 9 -41 43 -47 37 -7 103 30 85 48 -17 17 -14 24 14 31 14 4 25 11 25
16 0 17 -45 11 -61 -7z"/>
<path d="M6495 4590 c3 -5 8 -10 11 -10 2 0 4 5 4 10 0 6 -5 10 -11 10 -5 0
-7 -4 -4 -10z"/>
<path d="M6583 4537 c-10 -22 3 -57 21 -57 15 0 39 32 29 38 -5 4 -12 15 -16
25 -9 24 -22 21 -34 -6z m37 -27 c0 -5 -4 -10 -10 -10 -5 0 -10 5 -10 10 0 6
5 10 10 10 6 0 10 -4 10 -10z"/>
<path d="M7428 4518 c-16 -20 -16 -38 1 -38 4 0 17 14 29 30 20 27 21 30 5 30
-10 0 -26 -10 -35 -22z"/>
<path d="M6656 4483 c-4 -9 -3 -20 2 -25 6 -6 11 1 14 16 6 29 -6 35 -16 9z"/>
<path d="M7311 4484 c0 -11 3 -14 6 -6 3 7 2 16 -1 19 -3 4 -6 -2 -5 -13z"/>
<path d="M7087 4458 c2 -5 -4 -7 -14 -6 -36 3 -53 -2 -53 -16 0 -10 -11 -14
-35 -13 -19 1 -41 -5 -48 -12 -10 -11 -9 -13 3 -9 8 3 28 -1 45 -8 18 -7 37
-9 52 -3 13 5 30 6 38 3 8 -4 15 -2 15 2 0 5 16 9 35 10 40 1 40 1 49 32 5 14
3 22 -4 22 -6 0 -8 -6 -4 -12 4 -7 -1 -6 -12 4 -18 16 -77 21 -67 6z"/>
<path d="M5731 4081 c-17 -30 -13 -41 12 -38 16 1 21 -3 19 -15 -3 -20 13 -24
24 -6 4 6 0 16 -9 23 -10 7 -17 19 -17 28 0 25 -18 30 -29 8z"/>
<path d="M5708 3979 c-10 -5 -18 -18 -18 -29 0 -10 -22 -37 -49 -60 -57 -47
-72 -77 -47 -95 9 -7 16 -16 16 -20 0 -4 -7 -2 -15 5 -21 18 -38 2 -31 -31 7
-35 -5 -43 -38 -28 -23 11 -28 9 -56 -21 -18 -19 -30 -41 -28 -53 2 -11 -3
-22 -9 -24 -7 -3 -13 0 -13 6 0 5 -28 -17 -61 -49 -34 -33 -86 -74 -115 -91
-30 -17 -59 -39 -64 -49 -14 -25 -13 -50 2 -50 7 0 21 -11 33 -24 19 -23 23
-24 75 -16 42 7 62 17 82 40 15 16 30 30 32 30 10 0 56 48 56 57 0 5 11 16 25
23 14 7 25 16 25 20 0 4 16 24 36 44 27 28 34 40 25 49 -18 18 -13 39 8 32 29
-9 51 5 66 42 18 43 18 43 0 43 -8 0 -15 4 -15 9 0 17 26 30 49 24 20 -5 22
-3 16 16 -5 18 -2 24 14 28 16 4 19 11 15 29 -5 20 -2 24 15 24 28 0 27 11 -4
40 -15 14 -21 28 -17 34 7 9 14 57 9 56 -1 0 -10 -5 -19 -11z m-188 -338 c0
-6 -4 -13 -10 -16 -5 -3 -10 1 -10 9 0 9 5 16 10 16 6 0 10 -4 10 -9z"/>
<path d="M5751 3951 c-18 -11 -5 -31 20 -31 12 0 19 7 19 20 0 21 -16 26 -39
11z"/>
</g>
</svg>
